<svg xmlns="http://www.w3.org/2000/svg" width="121" height="121" viewBox="0 0 121 121">
  <g id="Grupo_12181" data-name="Grupo 12181" transform="translate(-393 -4640)">
    <circle id="Elipse_497" data-name="Elipse 497" cx="60.5" cy="60.5" r="60.5" transform="translate(393 4640)" fill="#4382dd"/>
    <path id="Trazado_1178" data-name="Trazado 1178" d="M53.993,0A53.993,53.993,0,1,1,0,53.993,53.993,53.993,0,0,1,53.993,0Z" transform="translate(400 4647)" fill="#fff"/>
    <g id="Grupo_11000" data-name="Grupo 11000" transform="translate(411.315 4659.458)">
      <path id="Trazado_3208" data-name="Trazado 3208" d="M-812.321,1029.2a23.728,23.728,0,0,1,3.726-4.8l-12.222-13.4a41.783,41.783,0,0,0-7.76,10.1Z" transform="translate(833.688 -999.483)" fill="#62b12f"/>
      <path id="Trazado_3209" data-name="Trazado 3209" d="M-734.108,1011.151a23.23,23.23,0,0,1,5.126,3.212l12.257-13.384a41.746,41.746,0,0,0-10.862-6.777Z" transform="translate(785.441 -990.902)" fill="#d5a102"/>
      <path id="Trazado_3210" data-name="Trazado 3210" d="M-693.692,1037.079l-16.247,8.1a23.174,23.174,0,0,1,1.626,5.74l18.074-1.706a41.228,41.228,0,0,0-3.454-12.133" transform="translate(773.097 -1012.795)" fill="#c11627"/>
      <path id="Trazado_3211" data-name="Trazado 3211" d="M-716.084,1029.86l16.244-8.1a41.8,41.8,0,0,0-7.591-10.081l-12.259,13.381a23.483,23.483,0,0,1,3.606,4.8" transform="translate(778.077 -999.83)" fill="#279338"/>
      <path id="Trazado_3212" data-name="Trazado 3212" d="M-820.884,1069.6c0-.366.012-.73.027-1.095l-18.076-1.617c-.055.9-.089,1.8-.089,2.712a41.563,41.563,0,0,0,1.23,10.056l17.458-5.01a23.467,23.467,0,0,1-.55-5.046" transform="translate(839.023 -1028.015)" fill="#4a7734"/>
      <path id="Trazado_3213" data-name="Trazado 3213" d="M-721.574,1102.8a23.637,23.637,0,0,1-4.409,4.146l9.545,15.454a41.929,41.929,0,0,0,9.348-8.679Z" transform="translate(781.291 -1046.346)" fill="#fab700"/>
      <path id="Trazado_3214" data-name="Trazado 3214" d="M-706.661,1069.764a23.075,23.075,0,0,1-.538,4.987l17.458,5.016a41.517,41.517,0,0,0,1.218-10c0-.857-.027-1.707-.08-2.554l-18.074,1.709c.009.282.016.561.016.845" transform="translate(771.698 -1028.18)" fill="#e5321d"/>
      <path id="Trazado_3215" data-name="Trazado 3215" d="M-805.561,1103.5l-14.449,10.981a41.851,41.851,0,0,0,9.437,8.548l9.542-15.436a23.752,23.752,0,0,1-4.53-4.093" transform="translate(829.313 -1046.707)" fill="#f49c08"/>
      <path id="Trazado_3216" data-name="Trazado 3216" d="M-820.238,1050.338a23.192,23.192,0,0,1,1.732-5.823l-16.24-8.093a41.265,41.265,0,0,0-3.585,12.294Z" transform="translate(838.669 -1012.46)" fill="#0076b7"/>
      <path id="Trazado_3217" data-name="Trazado 3217" d="M-726.766,1129.6l-9.531-15.434a23.346,23.346,0,0,1-5.561,2.261l3.362,17.852a41.329,41.329,0,0,0,11.73-4.679" transform="translate(789.399 -1052.155)" fill="#921831"/>
      <path id="Trazado_3218" data-name="Trazado 3218" d="M-711.266,1087.789a23.429,23.429,0,0,1-2.538,5.225l14.494,10.932a41.379,41.379,0,0,0,5.486-11.146Z" transform="translate(775.071 -1038.687)" fill="#00a6d6"/>
      <path id="Trazado_3219" data-name="Trazado 3219" d="M-757,1119.855a23.51,23.51,0,0,1-3.383.247,23.763,23.763,0,0,1-2.728-.162l-3.362,17.852a41.788,41.788,0,0,0,6.091.447,41.684,41.684,0,0,0,6.743-.547Z" transform="translate(801.971 -1055.059)" fill="#eb6411"/>
      <path id="Trazado_3220" data-name="Trazado 3220" d="M-750.961,1005.645a23.256,23.256,0,0,1,5.8,1.12l6.521-16.945a41.314,41.314,0,0,0-12.323-2.332Z" transform="translate(794.048 -987.474)" fill="#e1061f"/>
      <path id="Trazado_3221" data-name="Trazado 3221" d="M-780.861,1116.844a23.286,23.286,0,0,1-5.756-2.176l-9.549,15.443a41.388,41.388,0,0,0,11.947,4.567Z" transform="translate(817.135 -1052.409)" fill="#dc0879"/>
      <path id="Trazado_3222" data-name="Trazado 3222" d="M-775.281,1006.667a23.24,23.24,0,0,1,5.924-1.054V987.459a41.376,41.376,0,0,0-12.488,2.277Z" transform="translate(809.822 -987.459)" fill="#203162"/>
      <path id="Trazado_3223" data-name="Trazado 3223" d="M-814.826,1093.45a23.309,23.309,0,0,1-2.767-5.545l-17.445,5.007a41.353,41.353,0,0,0,5.761,11.519Z" transform="translate(836.988 -1038.746)" fill="#d18c0e"/>
      <path id="Trazado_3224" data-name="Trazado 3224" d="M-796.487,1014a23.391,23.391,0,0,1,5.03-3.042l-6.562-16.925a41.514,41.514,0,0,0-10.7,6.553Z" transform="translate(823.546 -990.814)" fill="#004c83"/>
    </g>
  </g>
</svg>
