<svg xmlns="http://www.w3.org/2000/svg" width="121" height="121" viewBox="0 0 121 121">
  <g id="Grupo_12182" data-name="Grupo 12182" transform="translate(-887 -4640)">
    <circle id="Elipse_497" data-name="Elipse 497" cx="60.5" cy="60.5" r="60.5" transform="translate(887 4640)" fill="#4382dd"/>
    <path id="Trazado_1178" data-name="Trazado 1178" d="M53.993,0A53.993,53.993,0,1,1,0,53.993,53.993,53.993,0,0,1,53.993,0Z" transform="translate(894 4647)" fill="#fff"/>
    <g id="Grupo_10999" data-name="Grupo 10999" transform="translate(906 4666.6)">
      <path id="Trazado_3192" data-name="Trazado 3192" d="M-1871.349,1020.664l.226.328a30.849,30.849,0,0,1,0,3.708,23.341,23.341,0,0,1,3.6-.51,1.254,1.254,0,0,1-.659-.39c-.705-.046-1.036-.78-1.262-1.337-.1-.406.165-.736.33-1.08-.3-.617-1.232-.166-1.772-.391-.151-.119-.255-.3-.465-.328m-17.145-1.052-.046.18-3.093,3.107a30.418,30.418,0,0,0,16,7.491,25.131,25.131,0,0,1,2.988.362l-.226-.362v-4.067l.15-.224-.466.119a23.686,23.686,0,0,1-15.312-6.606m33.33.044-.075-.36a8.09,8.09,0,0,1-2.057,1.982c-.977.977-2.568,1.186-3.063,2.6-.525.479-.705,1.231-1.442,1.5-.27.722-1.036.676-1.471,1.2-1.261,1.125-2.071-.72-3.214-.946l-2.3.406a7.218,7.218,0,0,1-2.342.029,35.4,35.4,0,0,1,0,4.714l.285-.179a29.216,29.216,0,0,0,18.842-7.928Zm-27.745-2.806c.09.36.569.584.435,1.036a1.271,1.271,0,0,1-1.2.406c-.856-.136-1.488.509-2.3.6-.736.226-.992-.674-1.667-.6a23.621,23.621,0,0,0,14.533,6.229l.421.285-.18-.509v-3.965l-.36.151a17.394,17.394,0,0,1-9.684-3.633m-.1-.121a.661.661,0,0,1-.362-.464Zm-.481-.645-.061-.107.061.182Zm24.142-.571-.1-.285a2.511,2.511,0,0,1-.676.856c.014.239-.075.6.209.766.6.195,1.381.584,1.517,1.291-.24.659-1.5,1.26-.721,1.982.255.36-.36.5-.253.8l.209-.285a20.934,20.934,0,0,0,2.672-2.237h.1c-.18-.061-.406.119-.616.029a.958.958,0,0,1-.5-1.007Zm-20.855-4.189a22.126,22.126,0,0,1-2.986,3.063c.465.029.72.54,1.109.766a18.758,18.758,0,0,0,7.673,3.423l-.722-.331c-.54-.615-1.306-1.337-1.335-2.193.54-.18.479-.78.661-1.184a3.007,3.007,0,0,1,1.576-.872c-1.517.632-2.837-.494-4.1-1.08a5.881,5.881,0,0,1-1.877-1.592m14.488-.42c-.464,0-.705.362-1.051.646-.421.24-.63-.45-.975-.285.015.075.09.1.151.134a.34.34,0,0,1,0,.435c-.51.465-.751-.224-1.232-.18v.18c.015.1-.029.27-.18.211-.3-.5-.914-.316-1.216-.751-.2-.1-.376.029-.51.149-.1.226-.586-.029-.466.362-.375.134-.419.54-.691.781-.464-.075-.674.45-1.111.435.046.09,0,.241.136.255a1.527,1.527,0,0,0,.87.1c.45-.72,1.2-.119,1.833-.39.389.074.119.494.4.645.615-.195,1.082.525,1.577.075-.031-.705.766-.646,1.2-.827.675-.4,1.44-.946,1.366-1.846Zm-1.7-1.126c-.046.119-.211.331,0,.406.36-.377,1.126-.36,1.155-.9-.525-.075-.8.211-1.155.5m-8.723-2.626a23.329,23.329,0,0,1-2.779,2.986,11.464,11.464,0,0,0,5.405,2.494c.106-.406-.059-.916.151-1.262.15-.331.556-.316.856-.255a.255.255,0,0,0,.18-.391c-.435-.09-.239-.571-.39-.841.015-.149.27-.119.209-.314-.3-.241.151-.51-.1-.766.1-.075.18-.24.331-.24-.946.5-1.967-.1-2.808-.481-.389-.224-.96-.45-1.051-.929m18.917,0c-.435-.031-.961.224-1.337-.075-.136-.121-.224.058-.212.178-.149.226-.3.512-.644.406-.27-.119-.27-.406-.36-.615a1.641,1.641,0,0,1-.075.466,5.057,5.057,0,0,0-.645,1c-.316.345-.826.226-1.157.51-.06.722-.856.571-1.305.8-.031.09.075.1.119.18a.577.577,0,0,0,.645-.151c.632.165.5-.63.858-.9.316-.046.615-.316.946-.106a2.138,2.138,0,0,1,.36,1.517c-.36.36-.18.946-.435,1.366.059.5-.54.72-.465,1.216a1.058,1.058,0,0,1-.826.255,14.092,14.092,0,0,0-3.754-.856.266.266,0,0,0-.18.286c.54.285,1.2.3,1.77.54.512.134.858.766,1.5.57.54-.3,1.442.18,1.8-.389-.061-.556.421-.96.661-1.442l.18-.046c.3.316.285.781.421,1.127.421-.452.751-.945,1.125-1.412a13.423,13.423,0,0,0,2.191-4.639,4.414,4.414,0,0,0-1.184.211m-8.5-.031a1.106,1.106,0,0,0,.24.72c.586-.09.331.722.87.646.3-.09.017-.345.107-.54-.09-.452-.525-.5-.827-.766-.029-.09.031-.165.075-.24-.226-.119-.331.015-.466.18m-11.86-1.231a2.166,2.166,0,0,1-.615.975l.044.029c.362-.255.617-.72,1.082-.749Zm-4.714-1.186c.421.781.645,1.666,1.08,2.448.272.688.872,1.23,1.142,1.906a10.273,10.273,0,0,1,1.26-1.471.775.775,0,0,0-.134-.586c-.136-.316-.015-.766-.255-1.036-.391.134.134.525-.029.749a.239.239,0,0,1-.362-.18.993.993,0,0,1-.72-.674c.285-.182-.075-.257-.15-.406-.149-.075-.166-.061-.285.075a.366.366,0,0,1-.224-.031c0-.856-.962-.345-1.322-.8m-7.717-1.847-.331.151a34.851,34.851,0,0,1-4.174-.1l.18.255.331,2.762a21.26,21.26,0,0,1,.571,3.139c.165-.226.06-.676.464-.722-.164-.331.316-.615.046-.9a3,3,0,0,1,.856-1.981c.766-.031.825-1.036,1.592-1.082.39-.015.63.51.8.69a2.85,2.85,0,0,1-.331-2.207m-5.871,0-.406.151-4.173-.029a30.615,30.615,0,0,0,3.678,13.182,49.169,49.169,0,0,0,3.993,5.614l2.988-3.092.36-.151a9.154,9.154,0,0,1-1.4-1.442,2.056,2.056,0,0,1-1.26-.961c-.151-.165-.016-.464-.182-.584l-.18.224c-.525.255-.72-.287-1.08-.511-.466-.255-.24-1.142-.87-.975-.24-.015-.316-.287-.466-.435-.586.059-.737-.586-1.051-.9-.061.136,0,.316-.18.406-.6.134-.812-.6-1.216-.9-.106.046-.182.166-.332.136a1.767,1.767,0,0,1-.615-1.262c-.494-.555-.27-1.442-.18-2.118.09-.18.345-.285.3-.509.134-.316.465-.347.781-.362a.787.787,0,0,1,.3.285c.2-.12.632.016.467-.419a1.976,1.976,0,0,1,.975-.362,6.27,6.27,0,0,0,.676.931l-.209-.331a23.786,23.786,0,0,1-.722-4.563c.015-.09-.195-.134-.075-.224l.031.044a4.715,4.715,0,0,1,.044-.841m7.238-.059.224.36a12.072,12.072,0,0,1,.211,2.942c.166-.285.21-.676.57-.856.046-.27-.36-.346-.314-.615.285-.556.015-1.456.751-1.7a1.727,1.727,0,0,1-1.442-.134m35.027-.046a16.226,16.226,0,0,1-.212,2.7l.5.54a.55.55,0,0,1-.1.69.586.586,0,0,1-.691-.046,19.6,19.6,0,0,1-2.628,5.736c-.5.632-.975,1.5-1.622,1.833l1.366,1.2c.075-.075.031-.195.044-.3,0-.18.092-.39.316-.36.661-.015.676.69,1.052,1.05-.075.571.421,1.021.255,1.546a22.258,22.258,0,0,0,6.018-14.306l.212-.241c-1.352.134-2.777.044-4.173.059Zm6.02.1-.255-.18.15.406a24.183,24.183,0,0,1-4.76,13.333,9.958,9.958,0,0,1-1.772,1.935,31.709,31.709,0,0,1,3.35,3.289l.119-.225a28.9,28.9,0,0,0,7.493-18.331l.18-.36-.226.1Zm-10.269-.21.464.465c.466.316.151.992.646,1.262.586.3.8.975,1.051,1.488a1.538,1.538,0,0,0,.136-.437c.21-.825.18-1.755.435-2.567a6.363,6.363,0,0,1-2.733-.21m.931-1.471a1.376,1.376,0,0,1-.435.029,1.063,1.063,0,0,1,.435-.029m-28.1-.51c-1.216.389.195,1.306-.1,2.057-.165.435-.615.029-.931.209l-.121.8c-.18.466-.766.121-1.036.437-.195.3.015.615.18.856-.419.961.946,1.26.931,2.132.421.54-.058,1.32.542,1.8.134.975-.136,2.3.72,3.061l.15.931c.18.646-.766.481-.646,1.051.18-.09.226.151.241.211v-.029a39.555,39.555,0,0,1,3.859-3.934l-.57-.571a15,15,0,0,1-2.312-5.15l-.437-.226c-.015.481-.24.856-.209,1.337l-.15.18c-.316-.015-.511-.27-.781-.435-.06-.165-.226-.435.03-.571a.5.5,0,0,1,.362.1c.134-.165.073-.4.149-.615.046-.36-.27-.691-.044-1.007.285-.029.5.316.615.511.285.09.511-.149.751-.255,0-.255.36-.6-.03-.749a3.547,3.547,0,0,0-.031-1.772c-.165-.5-.72-.406-1.125-.36m13.046-3.71c-.241-.27-.766-.1-1.08,0,.3.3.18.841.36,1.218a2.865,2.865,0,0,1-1.906,1.126c-.2.24-.151.766-.617.72-.149.331-.659.525-.465,1.006a9.1,9.1,0,0,0-.255,1.727c-.887.555-.63-.735-1.082-1.007l-.149.255c-.182.046-.3-.059-.421-.18-.136-.046-.362-.09-.481.029-.195.331-.5.6-.421,1.052-.09.27-.54.18-.479.465a8.562,8.562,0,0,0,1.515-.21c.345.09.63-.165.977-.18a.322.322,0,0,1,.209.36h.121a.609.609,0,0,0,.239-.722c.031-.314.377-.314.586-.4.2.09.075.284.1.435.676.255-.163.751-.255,1.111-.18.285,0,.931-.569.841a.213.213,0,0,1-.151-.257h-.075a.777.777,0,0,0,.406.677c.421-.345.435-.931,1.036-1.006.314-.331-.136-.841.331-1.111.781-.015,1.622-.345,2.237.284-.046.27-.151.391.075.616a2.963,2.963,0,0,1-.542,1.006.516.516,0,0,1-.149.571c-.211.914-1.262.481-1.877.8a4.77,4.77,0,0,0,3.317.9c.646-.031.362-.827.692-1.187.209-1.052,1.17-.33,1.755-.617a4.171,4.171,0,0,0,.511-1.4,1,1,0,0,1-.406-1.126c-.255-.345-.226-.977-.78-1.036a.3.3,0,0,1,.06-.36c-.015-.331.314-.436.406-.69-.346-.226-.255-.722-.226-1.007-.586.166-.646-.6-1.082-.766-.1-.345-.479-.406-.78-.466-.72.347-.841-.54-1.381-.749-.06-.165-.18-.406,0-.542.27-.224.63-.029.946-.044Zm-7.282-2.492h.33c.36.362.946.286,1.216.766.136.27-.255.24-.241.466.075.059.182.075.241.18.284.1.225-.166.33-.287.375-.375.436.362.8.362a.556.556,0,0,1,.8.1c.239-.211.749-.015.824-.406.466-.494.211-1.262.9-1.576.241.134-.015.36.074.571.466.195.992-.391,1.368.073a9.483,9.483,0,0,1-.226-3.272,10.245,10.245,0,0,0-6.411,3.018m8.077-3.137c.286.856.031,2.116.211,3.107l1.082.36c.314-.525,1-.63,1.306-1.126.195-.166.421,0,.571.18a3,3,0,0,1-.182,1.2c-.4.812-1.366.916-1.906,1.5.345.2.54-.165.827-.24a1.8,1.8,0,0,1,1,.676c.272.119.527-.046.766-.136.165-1.245,1.728-1.065,2.193-2.237l-.284.1c-.12-.165-.421-.09-.406-.36a3.112,3.112,0,0,1,.9-.72,15.258,15.258,0,0,0-4.279-1.952,14.57,14.57,0,0,1-1.8-.36m-12.971-.5a17.685,17.685,0,0,0-4.039,8.317,13.725,13.725,0,0,1-.36,2.237,3.749,3.749,0,0,1,1.875-.075c-.343-.18-.058-.615-.253-.856-.046-.375-.106-.839.253-1.08-.044-.617.617-.931.678-1.487.165-.63.885-.21,1.23-.54.226-.121.029-.33.029-.5.3-.406.766-.391,1.126-.615a3.2,3.2,0,0,1,1.007-1.052c.9.031.916-1.231,1.772-1.26a35.687,35.687,0,0,1-3.318-3.092m24.426-.151-.075.18c-1.381,1.442-2.9,2.927-4.218,4.4a1.038,1.038,0,0,0,.406.435c.059-.362.255-.676.284-1.051.36-.5.9-.182,1.366-.075a10.13,10.13,0,0,1,2.132.149c.54.27.586.962,1.079,1.233a.423.423,0,0,1-.149.569c.149,1.125.691-.3,1.262-.029.239.09.54.06.72.316.09.464.661.375.691.825-.044.226-.285.285-.435.406.136.45-.465.736-.255,1.216.87.165.9-.841,1.306-1.291a8.111,8.111,0,0,0-.84-2.266c-.5-.107-.8-.69-1.292-.8-.961-.375.151-.975.031-1.546a18.064,18.064,0,0,0-2.013-2.672m-28.72-4.174-.03.286-1.622,2.057a23.938,23.938,0,0,0-4.294,12.461l4.112-.075.391.151c-.166-.1-.12-.285-.18-.435a18.108,18.108,0,0,1,4.789-11.276,29.809,29.809,0,0,1-3.168-3.168m17.22-1.126.151.331-.029,4.07.39-.075a13.174,13.174,0,0,1,6.74,2.747l.106.314c.676-.946,1.7-1.756,2.492-2.655l.751-.437-.36-.149a17.484,17.484,0,0,0-5.406-3.124,26.641,26.641,0,0,0-4.834-1.021m-1.575-.029-.255.151a17.523,17.523,0,0,0-10.014,4.248,40.253,40.253,0,0,1,3.2,2.988c.075-.1.151-.211.226-.331a13.772,13.772,0,0,1,4.578-2.372,6.8,6.8,0,0,1,2.268-.253,19.818,19.818,0,0,1,0-4.43m-19.744-3.138a29.527,29.527,0,0,0-7.687,16.4c-.163.9-.06,1.831-.24,2.747a29.641,29.641,0,0,1,4.641,0l-.107-.586a24.417,24.417,0,0,1,4.505-12.866,12.415,12.415,0,0,1,2.011-2.3c-.975-.916-2-1.981-3.017-2.988Zm41.287-.1a34.2,34.2,0,0,1-2.988,3.212l-.511.106c.316.075.406.45.617.676,1.095.584,1.379,1.756,2.342,2.417.54,1.126,1.787,2,1.831,3.287a23.8,23.8,0,0,1,2.282,9.323l-.121.18a.619.619,0,0,0,.36-.134l4.325-.075c-.285-.421-.165-1.036-.24-1.546a29.683,29.683,0,0,0-7.9-17.446m-33.359,1.366c-.931.646-1.789,1.486-2.747,2.057a24.206,24.206,0,0,1,3.032,2.808l.1.285a18.013,18.013,0,0,1,9.008-4.564,7.944,7.944,0,0,1,2.373-.18,29.546,29.546,0,0,1-.029-4.325,23.062,23.062,0,0,0-11.741,3.919m26.948-4.039c-.314.3-.586-.27-.87.074a.618.618,0,0,0,.1.437c.632.224.707,1.14,1.517.931.241-.271-.151-.556-.075-.9a.89.89,0,0,0-.675-.54m-13.586-.031.151.286c-.031,1.4.059,2.881-.077,4.189a4.721,4.721,0,0,1,1.728.06,17.588,17.588,0,0,1,8.077,3.241,2.136,2.136,0,0,1-.69-1.08.163.163,0,0,1,.18-.06c.029-.467-.466-.705-.54-1.126a.3.3,0,0,1,.329-.136,9.809,9.809,0,0,1,1.322,1.546c.33-.134.6.075.841.255.435.255.165.812.5,1.111.059.887,1.14,1.381,1.079,2.268.017.209.27.044.36.151l.9,1.109a.451.451,0,0,0,.149.617c.406.18.631-.331,1.038-.255.586.331-.09.72-.029,1.08.224.015.509-.18.688.046.075.331-.27.54-.4.751,0,.329.27.255.511.329a.414.414,0,0,1,.36.542c.751.78-.226,1.622.134,2.446a1.429,1.429,0,0,1-.389,1.473c.014.659-.586,1.065-.827,1.62l-.766.151c-.406.406.345.9-.059,1.157l1.68.029-.18-.18a2.477,2.477,0,0,1,.226-2.132,4.771,4.771,0,0,1,.8-1.651c.1-.029.3-.226.391,0a3.015,3.015,0,0,1-.255,1.546,4.594,4.594,0,0,1,.465,2.446c1.488-.09,2.944-.119,4.4-.1l-.136-.284a21.529,21.529,0,0,0-1.95-7.777c-.316.014-.54.27-.9.18a.284.284,0,0,1-.182-.3,20.989,20.989,0,0,0-1.651-1.831c-.766.075-1.111-.81-1.8-.9-.615-.255-.194-1.247-1.081-.977a1.451,1.451,0,0,1-.946-1,2.465,2.465,0,0,0-.856-2.132c-.54-.2-.764.525-1.306.4-.3-.149-.166-.54-.255-.8-.1-.224-.36-.391-.314-.69.705-.931-.855-.916-.51-1.831-.09-.661-.766-.916-1.113-1.442a24.337,24.337,0,0,0-7.28-2.088,4.971,4.971,0,0,1-1.8-.255m3.5-3.708-2.163.931c-.18-.075-.525-.166-.645.075-.092.075,0,.18.029.255.8,1.021,2.176.45,3.168.255a1.907,1.907,0,0,0,1.952-.511v-.1a3,3,0,0,0-2.341-.9m-5.151-2.266a29.2,29.2,0,0,0-16.153,5.721c-.916.63-1.728,1.59-2.657,2.13h.134a25.765,25.765,0,0,1,3.318,3.2l.075-.211a23.833,23.833,0,0,1,15.344-6.455l-.136-.36-.044-3.6Zm1.682-.151a20.968,20.968,0,0,1,.044,4.143.625.625,0,0,1,.136-.36c.211-.119.39.061.481.209.015.211.1.571-.075.692.18.029.27-.107.435-.107a22.406,22.406,0,0,1,9.474,2.883v-.075c.584-.285,1.335-.661,1.936-.151.72-.27.856.617,1.442.722a3.16,3.16,0,0,1,1.592,2.027c.134.27.554.465.615.749a11.462,11.462,0,0,1,2.266-2.626l.51-.211a28.023,28.023,0,0,0-15.929-7.537,23.372,23.372,0,0,1-2.928-.36m26.454,15.674a29.787,29.787,0,0,1,1.981,21.11c-2.057,8.031-8.813,16.154-16.68,19.457-8.857,4.338-21.439,3.258-29.336-2.4-10.974-7.52-15.465-20.479-12.146-33.269a30.526,30.526,0,0,1,15.463-18.8,31.73,31.73,0,0,1,13.663-3.243,30.188,30.188,0,0,1,27.055,17.145" transform="translate(1914.23 -971.808)" fill="#5591cd"/>
      <path id="Trazado_3193" data-name="Trazado 3193" d="M-1763.375,981.4a13.312,13.312,0,0,1,3.844,7.16l.36.841a31.573,31.573,0,0,1-8.137-8.647l-2.492-2.522c2.193.931,4.549,1.486,6.426,3.168" transform="translate(1833.865 -975.715)" fill="#5591cd"/>
      <path id="Trazado_3194" data-name="Trazado 3194" d="M-1903.485,985.974c-1.471,1.816-3.348,3.017-5.015,4.578.9-1.86.931-4.083,2.207-5.794,1.816-3.168,5.181-4.279,8.183-5.45a37.087,37.087,0,0,0-5.375,6.666" transform="translate(1918.155 -976.366)" fill="#5591cd"/>
      <path id="Trazado_3195" data-name="Trazado 3195" d="M-1749.031,994.782c.7,3.153-.316,6.231.33,9.414l-.031.029c-1.711-3.377-5.359-4.969-7.867-7.673a10.775,10.775,0,0,1-2.446-5.629c1.442,3.467,5.315,4.233,7.536,7.146a9.377,9.377,0,0,1,1.471,2.373l.075-.075c-1.276-2.733-1.712-5.811-2.6-8.723a6.8,6.8,0,0,0-2.523-3.3c2.913.6,5.451,3.648,6.051,6.441" transform="translate(1827.329 -981.856)" fill="#5591cd"/>
      <path id="Trazado_3196" data-name="Trazado 3196" d="M-1912.064,989.719c-2.973,2.042-2.777,5.7-3.723,8.753-.3,1.126-.826,2.161-1.082,3.318l.075.061a10.319,10.319,0,0,1,2.446-3.6c2.117-1.952,5.241-3.17,6.277-6.051-.046,4.007-3.394,7.16-6.591,9.414a13.34,13.34,0,0,0-3.319,3.963c-.075-1.006.151-2.027.075-3.107-.345-3.5-.6-7.493,1.877-10.09a7.444,7.444,0,0,1,3.963-2.657" transform="translate(1924.002 -982.693)" fill="#5591cd"/>
      <path id="Trazado_3197" data-name="Trazado 3197" d="M-1741.294,1003.846a14.064,14.064,0,0,1,1.306,13.467,23.747,23.747,0,0,0-1.515,5.555c-.136-.331-.165-.781-.286-1.155-1.051-4.039-4.879-6.922-6.455-10.736a19.978,19.978,0,0,1-1.157-3.888c1.682,3.107,5.825,4.714,6.951,8.137a15.579,15.579,0,0,1,.721,2.881.114.114,0,0,0,.12-.1,39.351,39.351,0,0,1,.136-10.7,8.832,8.832,0,0,0-1.262-5.179c.676.389.977,1.14,1.442,1.726" transform="translate(1821.469 -990.229)" fill="#5591cd"/>
      <path id="Trazado_3198" data-name="Trazado 3198" d="M-1924.529,1003.647c-2.281,3.469-.389,7.836-.5,11.785l-.3,4.04c.044.029.044.151.151.1.134-.45.165-.931.255-1.4.54-3.258,3.362-5.572,5.84-7.823a6.388,6.388,0,0,0,1.262-1.877,16.685,16.685,0,0,1-1.383,4.76c-1.921,3.754-5.48,6.83-6.124,11.125-.316-4.113-3.124-7.191-2.837-11.561-.09-3.544,1.381-6.44,3.453-9.083.061-.029.1-.09.18-.075" transform="translate(1930.116 -991.155)" fill="#5591cd"/>
      <path id="Trazado_3199" data-name="Trazado 3199" d="M-1734.614,1044.13c-1.575,2.237-3.483,4.323-4.94,6.606.166-1.8.376-4.024-.331-5.735a49.748,49.748,0,0,1-2.626-11.456l.044-1.546c.916,4.13,4.969,6.968,4.714,11.59a10.16,10.16,0,0,1-.465,3.063l.075.075.18-.209a45.843,45.843,0,0,1,1.831-6.771c1.337-3.048,2.988-6.126,2.312-9.8,2.028,4.339,1.412,10.135-.8,14.188" transform="translate(1817.281 -1007.136)" fill="#5591cd"/>
      <path id="Trazado_3200" data-name="Trazado 3200" d="M-1928.671,1043.644a37.872,37.872,0,0,0,1.155,4.58c.06.03.106-.031.151-.075-1.546-4.324.676-8.334,2.912-11.711a11.368,11.368,0,0,0,1.128-2.988,25.341,25.341,0,0,1-.542,6.231c-.54,2.582-1.352,5.028-2.057,7.537a11.784,11.784,0,0,0-.1,4.969l-.226-.18c-1.636-3.017-4.88-5.375-5.84-8.679a18.4,18.4,0,0,1-.781-8.542,15.952,15.952,0,0,1,.931-3.272c-.916,4.683,2.237,8.062,3.272,12.13" transform="translate(1933.101 -1008.092)" fill="#5591cd"/>
      <path id="Trazado_3201" data-name="Trazado 3201" d="M-1745.886,1069.422a10.771,10.771,0,0,1-1.833,5.45h.18a69.246,69.246,0,0,1,4.25-5.706c2.613-2.523,5.271-5.105,5.616-8.6.885,5.842-2.387,10.96-7.236,14.264-2,1.306-4.024,2.521-5.947,4.009v-.18c2.942-4.894,1.5-11.607,3.317-16.982l.678-1.8c-.377,3.348,1.08,6.185.975,9.548" transform="translate(1822.352 -1025.327)" fill="#5591cd"/>
      <path id="Trazado_3202" data-name="Trazado 3202" d="M-1921.114,1076.893c.316,1.111.961,2.1,1.381,3.168-4.474-3.048-10.569-5.945-12.55-11.531a13.883,13.883,0,0,1-.751-6.515c.36,4.969,5.7,7.6,8.181,11.711a13.617,13.617,0,0,0,1.877,2.477c-.119-.525-.615-.975-.8-1.517a10.687,10.687,0,0,1-.975-5.869c.241-2.538,1.306-4.9.9-7.568,2.178,4.7,1.517,10.556,2.733,15.645" transform="translate(1933.112 -1026.162)" fill="#5591cd"/>
      <path id="Trazado_3203" data-name="Trazado 3203" d="M-1765.391,1093.046a14.875,14.875,0,0,1-3.063,3.678c.392-.015.737-.36,1.082-.586,3.228-3.214,7.432-4.114,10.914-6.727a10.53,10.53,0,0,0,3.289-4.143c-.661,5.329-5.961,10.33-10.96,11.921-2.584.69-5.346.916-7.853,1.772,4.25-3.649,4.009-9.294,6.847-13.588a43.784,43.784,0,0,1,2.7-3.647c-1.728,3.467-.977,7.957-2.959,11.32" transform="translate(1835.191 -1038.607)" fill="#5591cd"/>
      <path id="Trazado_3204" data-name="Trazado 3204" d="M-1912.667,1089.285c1.5,3.693,2.072,7.867,5.541,10.66-3.754-1.232-8.152-.887-11.456-3.2-3.618-2.222-6.846-5.99-7.522-10.134,2.492,5.646,8.738,6.11,12.927,9.548a10.375,10.375,0,0,0,2.448,1.668l.044-.046a14.44,14.44,0,0,1-2.747-2.988c-2.446-3.407-1.592-8.182-3.423-11.845a27.53,27.53,0,0,1,4.189,6.336" transform="translate(1928.853 -1039.35)" fill="#5591cd"/>
      <path id="Trazado_3205" data-name="Trazado 3205" d="M-1791.336,1113.485a23.023,23.023,0,0,1-3.017,1.155,31.547,31.547,0,0,0,3.917-.584c4.955-.783,10.631.015,14.1-4.2-1.291,2.942-4.52,5.4-7.461,6.441-5.06,1.906-10.15-.436-15-1.218l-.931-.119v-.03a13.6,13.6,0,0,0,6.411-2.883c2.718-2.611,5.135-5.3,8.152-7.357-2.236,2.868-2.477,6.951-6.17,8.8" transform="translate(1852.053 -1052.56)" fill="#5591cd"/>
      <path id="Trazado_3206" data-name="Trazado 3206" d="M-1892.929,1112.748a13.956,13.956,0,0,0,6.666,2.957c-.586.211-1.351.151-1.981.316-4.369,1.082-9.234,2.837-13.873,1.262a13.457,13.457,0,0,1-7.641-6.306c3.992,4.549,10.523,3.033,15.854,4.22a7.49,7.49,0,0,0,2.237.283c-.632-.4-1.517-.36-2.208-.72-4.174-1.471-4.79-5.99-7.055-9.037,2.9,1.921,5.329,4.519,8,7.026" transform="translate(1918.92 -1053.19)" fill="#5591cd"/>
      <path id="Trazado_3207" data-name="Trazado 3207" d="M-1849.436,1134.129a11.568,11.568,0,0,0,10.223-1.111,12.121,12.121,0,0,1-5.4,3.783c-4.5,1.683-9.2-.075-12.716-2.747-1.427-.9-2.687-2.208-4.534-2.086a6.274,6.274,0,0,0-1.877.18,34.8,34.8,0,0,1,9.5,6.591,14.333,14.333,0,0,1-1.726,1.561c-2.793-3.017-5.9-5.915-9.369-7.612a6.062,6.062,0,0,0-1.936.826,28.978,28.978,0,0,0-7.717,6.89l-1.8-1.486a32.989,32.989,0,0,1,9.548-6.8c-3.424-1.08-5.66,1.787-8.257,3.245-3.034,2.116-7.386,3.107-11.05,1.651a12.078,12.078,0,0,1-5.3-3.635,11.742,11.742,0,0,0,10.449.9c4.4-1.906,8.964-4.325,14.262-3.168.827.015,1.637.839,2.419.134a16.936,16.936,0,0,1,11.785,1.488Z" transform="translate(1908.036 -1068.415)" fill="#5591cd"/>
    </g>
  </g>
</svg>
