<svg xmlns="http://www.w3.org/2000/svg" width="118.934" height="119.546" viewBox="0 0 118.934 119.546">
  <g id="Grupo_11021" data-name="Grupo 11021" transform="translate(634.698 -2153.259)">
    <g id="Grupo_11018" data-name="Grupo 11018" transform="translate(-634.698 2153.259)">
      <g id="Grupo_11016" data-name="Grupo 11016" transform="translate(8.34 8.799)">
        <path id="Trazado_3254" data-name="Trazado 3254" d="M-361.775,2441.751c-.028,1.721.628,2.306,2.335,2.413a48.572,48.572,0,0,1,14.26,3.025c1.66.63,2.443.23,3.1-1.273a54.891,54.891,0,0,0,4.554-16.878c.242-2.5-.684-3.238-3.056-3.112-2.923.155-5.861.037-8.793.037v.027c-3.3,0-6.6.062-9.893-.024-1.9-.05-2.567.714-2.525,2.594C-361.694,2432.955-361.7,2437.355-361.775,2441.751Z" transform="translate(408.037 -2380.177)" fill="#206491"/>
        <path id="Trazado_3255" data-name="Trazado 3255" d="M-359.21,2328.613c3.161-.08,6.325-.022,9.488-.019,3.041,0,6.087-.1,9.122.038,2.279.1,3.313-.482,3.052-3.034a56.954,56.954,0,0,0-3.789-15.138c-.675-1.715-1.559-1.688-3.075-1.132a47.064,47.064,0,0,1-14.9,3.188c-1.832.052-2.561.832-2.508,2.7.1,3.646.118,7.3,0,10.946C-361.889,2328.168-360.995,2328.658-359.21,2328.613Z" transform="translate(408.063 -2286.64)" fill="#206491"/>
        <path id="Trazado_3256" data-name="Trazado 3256" d="M-231.228,2425.443a19.27,19.27,0,0,1-3.279-.034c-3.747-.675-4.887,1.125-4.977,4.574a38.965,38.965,0,0,1-2.707,12.038c-2.521,7.05-2.488,6.975,3.918,11,1.757,1.1,2.687.791,3.892-.7a42.4,42.4,0,0,0,9.245-19.184C-223.463,2423.894-222.906,2425.624-231.228,2425.443Z" transform="translate(313.604 -2379.662)" fill="#206491"/>
        <path id="Trazado_3257" data-name="Trazado 3257" d="M-242.181,2277.991c-1.757.732-1.938,1.736-1.175,3.43a52.413,52.413,0,0,1,3.658,12.589c1.2,6.855,1.155,6.863,7.885,6.864a38.378,38.378,0,0,1,4.384.028c2.9.334,3.494-.827,3.063-3.564a47.577,47.577,0,0,0-7-19.031c-3.236-4.944-3.216-4.954-8.3-1.8A18.259,18.259,0,0,1-242.181,2277.991Z" transform="translate(313.632 -2258.915)" fill="#206491"/>
        <path id="Trazado_3258" data-name="Trazado 3258" d="M-359.367,2219.383a53.823,53.823,0,0,0,13.82-3.072c1.225-.435,1.33-1.115.656-2.193a53.279,53.279,0,0,0-16.822-16.866c0,7.248.042,13.564-.027,19.878C-361.759,2218.9-361.079,2219.518-359.367,2219.383Z" transform="translate(407.995 -2197.252)" fill="#206491"/>
        <path id="Trazado_3259" data-name="Trazado 3259" d="M-346.462,2541.526c1.39-1.935.784-2.622-1.216-3.262A75.189,75.189,0,0,0-359.1,2535.9c-1.888-.3-2.73.275-2.657,2.265.09,2.433.021,4.872.022,7.309,0,2.559.073,5.119-.02,7.674-.086,2.358.684,2.5,2.445,1.242A55.034,55.034,0,0,0-346.462,2541.526Z" transform="translate(408.009 -2468.109)" fill="#206491"/>
        <path id="Trazado_3260" data-name="Trazado 3260" d="M-312.9,2209.729c3.7,5.236,3.617,5.1,9,1.593,2.51-1.636,2.006-2.616.07-4.155a45.853,45.853,0,0,0-16.316-8.652c-.947-.263-1.9-1.064-3.207.006A57.125,57.125,0,0,1-312.9,2209.729Z" transform="translate(377.285 -2197.834)" fill="#206491"/>
        <path id="Trazado_3261" data-name="Trazado 3261" d="M-308.828,2563.3c-1.1-.573-2.162-1.769-3.316.083-3.231,5.184-7.486,9.485-11.93,13.738a39,39,0,0,0,15.709-6.337C-302.5,2566.833-302.513,2566.6-308.828,2563.3Z" transform="translate(377.863 -2489.358)" fill="#206491"/>
        <path id="Trazado_3262" data-name="Trazado 3262" d="M-476.575,2425.966c-3.3.086-6.6.024-9.893.024v-.027c-2.932,0-5.869.118-8.793-.037-2.372-.126-3.3.607-3.056,3.112a54.894,54.894,0,0,0,4.554,16.878c.659,1.5,1.442,1.9,3.1,1.273a48.572,48.572,0,0,1,14.26-3.025c1.707-.107,2.363-.692,2.335-2.413-.071-4.4-.081-8.8.016-13.191C-474.008,2426.679-474.671,2425.916-476.575,2425.966Z" transform="translate(517.285 -2380.177)" fill="#206491"/>
        <path id="Trazado_3263" data-name="Trazado 3263" d="M-474.064,2315.216c.052-1.868-.676-2.647-2.508-2.7a47.064,47.064,0,0,1-14.9-3.188c-1.516-.556-2.4-.583-3.075,1.132a56.957,56.957,0,0,0-3.789,15.138c-.261,2.552.772,3.137,3.052,3.034,3.035-.137,6.081-.034,9.122-.038,3.163,0,6.327-.062,9.488.019,1.785.046,2.679-.445,2.612-2.45C-474.182,2322.517-474.166,2318.862-474.064,2315.216Z" transform="translate(517.299 -2286.64)" fill="#206491"/>
        <path id="Trazado_3264" data-name="Trazado 3264" d="M-574.933,2442.021a38.968,38.968,0,0,1-2.707-12.038c-.09-3.449-1.23-5.249-4.977-4.574a19.269,19.269,0,0,1-3.279.034c-8.322.181-7.765-1.549-6.093,7.7a42.4,42.4,0,0,0,9.245,19.184c1.206,1.489,2.135,1.8,3.892.7C-572.445,2449-572.412,2449.071-574.933,2442.021Z" transform="translate(593.002 -2379.662)" fill="#206491"/>
        <path id="Trazado_3265" data-name="Trazado 3265" d="M-589.367,2300.9a38.378,38.378,0,0,1,4.385-.028c6.731,0,6.686-.008,7.885-6.864a52.419,52.419,0,0,1,3.658-12.589c.764-1.694.582-2.7-1.175-3.43a18.258,18.258,0,0,1-2.516-1.482c-5.082-3.157-5.062-3.146-8.3,1.8a47.578,47.578,0,0,0-7,19.031C-592.86,2300.075-592.265,2301.236-589.367,2300.9Z" transform="translate(592.645 -2258.915)" fill="#206491"/>
        <path id="Trazado_3266" data-name="Trazado 3266" d="M-462.776,2214.118c-.674,1.078-.57,1.758.656,2.193a53.827,53.827,0,0,0,13.82,3.072c1.713.135,2.392-.482,2.373-2.253-.068-6.315-.027-12.631-.027-19.878A53.281,53.281,0,0,0-462.776,2214.118Z" transform="translate(489.154 -2197.252)" fill="#206491"/>
        <path id="Trazado_3267" data-name="Trazado 3267" d="M-441.081,2545.476c0-2.437-.067-4.875.022-7.309.073-1.99-.77-2.561-2.657-2.265a75.188,75.188,0,0,0-11.417,2.363c-2,.64-2.606,1.327-1.216,3.262a55.029,55.029,0,0,0,12.843,12.866c1.761,1.253,2.53,1.116,2.445-1.242C-441.154,2550.595-441.082,2548.034-441.081,2545.476Z" transform="translate(484.284 -2468.109)" fill="#206491"/>
        <path id="Trazado_3268" data-name="Trazado 3268" d="M-519.354,2211.322c5.386,3.511,5.3,3.644,9-1.593A57.118,57.118,0,0,1-499.9,2198.52c-1.3-1.069-2.26-.268-3.207-.006a45.853,45.853,0,0,0-16.316,8.652C-521.36,2208.706-521.864,2209.686-519.354,2211.322Z" transform="translate(535.45 -2197.834)" fill="#206491"/>
        <path id="Trazado_3269" data-name="Trazado 3269" d="M-506.657,2563.385c-1.154-1.852-2.22-.656-3.316-.083-6.315,3.3-6.327,3.531-.463,7.484a39,39,0,0,0,15.709,6.337C-499.17,2572.87-503.426,2568.569-506.657,2563.385Z" transform="translate(530.42 -2489.358)" fill="#206491"/>
      </g>
      <path id="Trazado_3270" data-name="Trazado 3270" d="M-581.768,2153.259a52.93,52.93,0,0,0-52.93,52.93,52.929,52.929,0,0,0,52.93,52.93,52.93,52.93,0,0,0,52.93-52.93A52.93,52.93,0,0,0-581.768,2153.259Zm0,102a49.073,49.073,0,0,1-49.073-49.073,49.073,49.073,0,0,1,49.073-49.073,49.073,49.073,0,0,1,49.073,49.073A49.073,49.073,0,0,1-581.768,2255.261Z" transform="translate(634.698 -2153.259)" fill="#206491"/>
      <g id="Grupo_11017" data-name="Grupo 11017" transform="translate(3.856 3.856)">
        <path id="Trazado_3271" data-name="Trazado 3271" d="M-566.344,2172.54a49.073,49.073,0,0,0-49.073,49.073,49.073,49.073,0,0,0,49.073,49.073,49.081,49.081,0,0,0,44.8-29.026v-40.095A49.082,49.082,0,0,0-566.344,2172.54Z" transform="translate(615.417 -2172.54)" fill="none"/>
      </g>
    </g>
    <rect id="Rectángulo_3015" data-name="Rectángulo 3015" width="75.672" height="26.118" rx="13.059" transform="translate(-619.604 2193.13)" fill="#fff"/>
    <g id="Grupo_11019" data-name="Grupo 11019" transform="translate(-610.076 2201.37)">
      <path id="Trazado_3272" data-name="Trazado 3272" d="M-519.409,2387.712l-3.787,12.921h-2.623l-2.328-9.058-2.316,9.058h-2.7l-3.979-12.921h3.1l2.546,8.687,2.226-8.687h2.648l2.265,8.687,2.495-8.687Z" transform="translate(537.141 -2387.712)" fill="#575756"/>
      <path id="Trazado_3273" data-name="Trazado 3273" d="M-410.939,2387.712l-3.787,12.921h-2.623l-2.329-9.058-2.316,9.058h-2.7l-3.979-12.921h3.1l2.546,8.687,2.226-8.687h2.648l2.264,8.687,2.495-8.687Z" transform="translate(446.927 -2387.712)" fill="#575756"/>
      <path id="Trazado_3274" data-name="Trazado 3274" d="M-302.469,2387.712l-3.787,12.921h-2.623l-2.329-9.058-2.316,9.058h-2.7l-3.979-12.921h3.1l2.546,8.687,2.226-8.687h2.648l2.264,8.687,2.495-8.687Z" transform="translate(356.714 -2387.712)" fill="#575756"/>
    </g>
    <g id="Grupo_11020" data-name="Grupo 11020" transform="translate(-567.962 2223.512)">
      <path id="Trazado_3275" data-name="Trazado 3275" d="M-301.038,2504.5l52.2,19.992-13.332,7.328,10.085,8.9a3.015,3.015,0,0,1,1.022,2.088,3.018,3.018,0,0,1-.754,2.2l-2.888,3.274a3.039,3.039,0,0,1-2.278,1.028h0a3.036,3.036,0,0,1-2.009-.76l-10.085-8.9-5.607,14.142Z" transform="translate(301.038 -2504.501)" fill="#fff"/>
      <path id="Trazado_3276" data-name="Trazado 3276" d="M-235.194,2541.481l-42.272-16.19,21.341,39.92,5.012-12.644,12.429,10.964a.841.841,0,0,0,1.187-.074l1.433-1.625.011-.012,1.444-1.637a.841.841,0,0,0-.074-1.187l-12.429-10.963Z" transform="translate(282.181 -2521.133)" fill="#575756"/>
    </g>
  </g>
</svg>
