<svg xmlns="http://www.w3.org/2000/svg" width="121" height="121" viewBox="0 0 121 121">
  <g id="Grupo_12185" data-name="Grupo 12185" transform="translate(-887 -5046)">
    <g id="Grupo_12184" data-name="Grupo 12184">
      <circle id="Elipse_497" data-name="Elipse 497" cx="60.5" cy="60.5" r="60.5" transform="translate(887 5046)" fill="#4382dd"/>
      <path id="Trazado_1178" data-name="Trazado 1178" d="M53.993,0A53.993,53.993,0,1,1,0,53.993,53.993,53.993,0,0,1,53.993,0Z" transform="translate(894 5053)" fill="#fff"/>
      <circle id="Elipse_550" data-name="Elipse 550" cx="41.59" cy="41.59" r="41.59" transform="translate(906 5065)" fill="#e5243b"/>
    </g>
    <g id="Grupo_11008" data-name="Grupo 11008" transform="translate(1712.644 3667.938)">
      <path id="Trazado_3237" data-name="Trazado 3237" d="M-737.637,1430.314a2.306,2.306,0,0,0,2.307-2.36,2.339,2.339,0,0,0-2.307-2.36,2.35,2.35,0,0,0-2.36,2.36A2.35,2.35,0,0,0-737.637,1430.314Zm2.727.891h-5.453a3.128,3.128,0,0,0-2.831,3.094v6.449a.919.919,0,0,0,.891.891.884.884,0,0,0,.891-.891v-5.558c0-.21.052-.472.42-.472.262,0,.315.262.315.472v16.674a1.3,1.3,0,0,0,1.311,1.311,1.3,1.3,0,0,0,1.311-1.311v-9.648a.349.349,0,0,1,.367-.367.349.349,0,0,1,.367.367v9.6a1.3,1.3,0,0,0,1.311,1.311,1.3,1.3,0,0,0,1.311-1.311v-16.674c0-.157.052-.472.315-.472.367,0,.419.262.419.472v5.558a.919.919,0,0,0,.891.891.884.884,0,0,0,.891-.891v-6.4a2.928,2.928,0,0,0-2.727-3.094Zm-21.184.21a2.215,2.215,0,0,0,2.2-2.2,2.216,2.216,0,0,0-2.2-2.2,2.216,2.216,0,0,0-2.2,2.2A2.215,2.215,0,0,0-756.094,1431.415Zm2.622,4.038c.315-.1.367.315.367.315l1.468,4.981s.262,1.049,1.206.787.629-1.363.629-1.363l-1.835-5.978s-.682-1.73-2.1-1.73h-4.719c-1.468,0-2.1,1.73-2.1,1.73l-1.835,5.978s-.315,1.1.629,1.363,1.206-.787,1.206-.787l1.468-4.981s.1-.367.367-.315c.315.1.157.472.157.472l-2.569,9.386h2.412v6.712a1.164,1.164,0,0,0,1.154,1.154,1.164,1.164,0,0,0,1.154-1.154v-6.712h.629v6.712a1.164,1.164,0,0,0,1.154,1.154,1.164,1.164,0,0,0,1.154-1.154v-6.712h2.412l-2.569-9.386s-.1-.367.157-.472Zm-15.888-4.038a2.215,2.215,0,0,0,2.2-2.2,2.216,2.216,0,0,0-2.2-2.2,2.216,2.216,0,0,0-2.2,2.2A2.215,2.215,0,0,0-769.36,1431.415Zm4.457,2.779s-.629-1.73-2.1-1.73h-4.719c-1.468,0-2.1,1.73-2.1,1.73l-1.835,5.978a1.281,1.281,0,0,0-.052.367.646.646,0,0,0-.524-.262.6.6,0,0,0-.577.315,15.292,15.292,0,0,1-1.206,1.835.7.7,0,0,1-.577.262h-2.2a.7.7,0,0,1-.577-.262c-.262-.262-1.154-1.835-1.206-1.835a.6.6,0,0,0-.577-.315.577.577,0,0,0-.524.315V1434.3a3.128,3.128,0,0,0-2.831-3.094h-5.453a3.128,3.128,0,0,0-2.831,3.094v6.449a.9.9,0,0,0,.472.787.183.183,0,0,0-.052.1l-2.1,11.011a.361.361,0,0,0,.262.419h.052a.294.294,0,0,0,.315-.262l2.1-11.011v-.1a.9.9,0,0,0,.682-.891v-5.558c0-.21.052-.472.419-.472.262,0,.315.262.315.472v16.674a1.3,1.3,0,0,0,1.311,1.311,1.3,1.3,0,0,0,1.311-1.311v-9.7a.349.349,0,0,1,.367-.367.349.349,0,0,1,.367.367v9.6a1.3,1.3,0,0,0,1.311,1.311,1.3,1.3,0,0,0,1.311-1.311v-16.674c0-.157.052-.472.315-.472.367,0,.419.262.419.472v5.558a.919.919,0,0,0,.891.891.934.934,0,0,0,.839-.524.183.183,0,0,0,.052.1l1.835,3.356a1.085,1.085,0,0,1,.1.419v.682l-1,3.618h1v2.936a.884.884,0,0,0,.891.891.884.884,0,0,0,.891-.891v-2.936h.524v2.936a.884.884,0,0,0,.891.891.884.884,0,0,0,.891-.891v-2.936h1l-1-3.618V1445a1.085,1.085,0,0,1,.1-.419l1.73-3.094a2.382,2.382,0,0,0,.157-.419.938.938,0,0,0,.524.472c.944.262,1.206-.787,1.206-.787l1.468-4.981s.1-.367.367-.315c.315.1.157.472.157.472l-2.569,9.386h2.412v6.712a1.164,1.164,0,0,0,1.154,1.154,1.164,1.164,0,0,0,1.154-1.154v-6.712h.629v6.712a1.164,1.164,0,0,0,1.154,1.154,1.164,1.164,0,0,0,1.154-1.154v-6.712h2.412l-2.569-9.386s-.1-.419.157-.472c.315-.1.367.315.367.315l1.468,4.981s.262,1.049,1.206.787.629-1.363.629-1.363Zm18.457,7.341a1.858,1.858,0,0,0,1.835-1.835,1.858,1.858,0,0,0-1.835-1.835,1.858,1.858,0,0,0-1.835,1.835A1.792,1.792,0,0,0-746.446,1441.535Zm4.352,5.243c0-.052-1.154-2.884-1.311-3.3a1.616,1.616,0,0,0-1.888-1.206h-2.569c-.944.052-1.258.524-2.307,3.251-.157.367-.682,1.678-.682,1.73a.661.661,0,0,0,.262.891.622.622,0,0,0,.786-.262l1-3.2s.157-.21.157,0v7.5a.94.94,0,0,0,.944.944.94.94,0,0,0,.944-.944v-2.989s-.052-.419.262-.419.262.419.262.419v2.989a.94.94,0,0,0,.944.944.94.94,0,0,0,.944-.944v-7.5c0-.21.1-.052.1-.052l.786,2.2s.315,1,.419,1a.639.639,0,0,0,.891-.367.555.555,0,0,0,.052-.682Zm-47.139-16.465a2.35,2.35,0,0,0,2.36-2.36,2.35,2.35,0,0,0-2.36-2.36,2.306,2.306,0,0,0-2.307,2.36A2.339,2.339,0,0,0-789.233,1430.314Z" fill="#fff"/>
      <path id="Trazado_3238" data-name="Trazado 3238" d="M-766.125,1452.666a1.858,1.858,0,0,0,1.835-1.835,1.858,1.858,0,0,0-1.835-1.835,1.858,1.858,0,0,0-1.835,1.835A1.824,1.824,0,0,0-766.125,1452.666Z" transform="translate(-13.565 -11.13)" fill="#fff"/>
    </g>
  </g>
</svg>
