<svg xmlns="http://www.w3.org/2000/svg" xmlns:xlink="http://www.w3.org/1999/xlink" width="139" height="139" viewBox="0 0 139 139">
  <defs>
    <filter id="Elipse_556" x="0" y="0" width="139" height="139" filterUnits="userSpaceOnUse">
      <feOffset dy="3" input="SourceAlpha"/>
      <feGaussianBlur stdDeviation="3" result="blur"/>
      <feFlood flood-opacity="0.161"/>
      <feComposite operator="in" in2="blur"/>
      <feComposite in="SourceGraphic"/>
    </filter>
  </defs>
  <g id="Grupo_11311" data-name="Grupo 11311" transform="translate(-878 -3006)">
    <g transform="matrix(1, 0, 0, 1, 878, 3006)" filter="url(#Elipse_556)">
      <circle id="Elipse_556-2" data-name="Elipse 556" cx="60.5" cy="60.5" r="60.5" transform="translate(9 6)" fill="#fafafa"/>
    </g>
    <g id="Grupo_11237" data-name="Grupo 11237" transform="translate(-2525.719 1903.955)">
      <g id="Grupo_11236" data-name="Grupo 11236">
        <path id="Trazado_5179" data-name="Trazado 5179" d="M3473.719,1115.045a54.062,54.062,0,0,0-54,54h54Z" fill="#0739a4"/>
        <path id="Trazado_5180" data-name="Trazado 5180" d="M3527.719,1169.045a54.068,54.068,0,0,0-54-54h0v54Z" fill="#fff"/>
        <path id="Trazado_5181" data-name="Trazado 5181" d="M3473.719,1169.045h-54a54.054,54.054,0,0,0,54,54h0a54.061,54.061,0,0,0,54-54Z" fill="#d42b1e"/>
      </g>
      <path id="Trazado_5182" data-name="Trazado 5182" d="M3450.665,1132.172l3.224,9.939h10.448l-8.448,6.133,3.224,9.939-8.448-6.133-8.461,6.133,3.236-9.939-8.461-6.133h10.448Z" fill="#fff"/>
    </g>
  </g>
</svg>
