<svg xmlns="http://www.w3.org/2000/svg" width="121" height="121" viewBox="0 0 121 121">
  <g id="Grupo_11049" data-name="Grupo 11049" transform="translate(320.906 -3137.103)">
    <circle id="Elipse_552" data-name="Elipse 552" cx="60.5" cy="60.5" r="60.5" transform="translate(-320.906 3137.103)" fill="#0a97d9"/>
    <g id="Grupo_11052" data-name="Grupo 11052" transform="translate(-287.46 3149.963)">
      <g id="Grupo_11049-2" data-name="Grupo 11049" transform="translate(15.986 19.164)">
        <path id="Trazado_3679" data-name="Trazado 3679" d="M-64.186,3274.317h-2.766v10.544h2.766c1.9,0,2.593-1.209,2.593-2.852v-4.927C-61.593,3275.441-62.2,3274.23-64.186,3274.317Zm.864,8.038a.954.954,0,0,1-1.037,1.037l-.778.086v-7.693h.778a.915.915,0,0,1,1.037,1.038Z" transform="translate(76.896 -3274.257)" fill="#fff"/>
        <path id="Trazado_3680" data-name="Trazado 3680" d="M-103.6,3274.154l-1.989,10.549h-1.9l-1.989-10.549h1.816l1.211,7.35,1.211-7.35h1.643Z" transform="translate(109.483 -3274.135)" fill="#fff"/>
        <path id="Trazado_3681" data-name="Trazado 3681" d="M-36.347,3274.074h-1.989l-1.989,10.549h1.643l.346-1.9h1.816l.346,1.9h1.816Zm-1.816,7.263.692-4.237.692,4.237Z" transform="translate(56.495 -3274.074)" fill="#fff"/>
        <rect id="Rect치ngulo_3020" data-name="Rect치ngulo 3020" width="1.816" height="10.549" transform="translate(6.988 0.037)" fill="#fff"/>
      </g>
      <g id="Grupo_11050" data-name="Grupo 11050" transform="translate(0 31.029)">
        <path id="Trazado_3682" data-name="Trazado 3682" d="M-94.111,3328.526l-1.288,6.846H-96.2l-1.288-6.846v6.846h-1.45v-10.55h2.094l1.127,5.959,1.047-5.959h2.255v10.55h-1.611l-.081-6.846Z" transform="translate(117.393 -3324.822)" fill="#fff"/>
        <path id="Trazado_3683" data-name="Trazado 3683" d="M-147.747,3324.822v7.891c0,1.629-.686,2.659-2.487,2.659a2.36,2.36,0,0,1-2.659-2.659v-7.891h1.8v8.062c0,.6.257,1.03.858,1.03s.858-.429.858-1.03v-8.062Z" transform="translate(158.73 -3324.822)" fill="#fff"/>
        <path id="Trazado_3684" data-name="Trazado 3684" d="M-177.856,3332.879v-1.329h1.578v1.412c0,.581.249.914.831.914.5,0,.747-.333.747-.914v-.416a1.855,1.855,0,0,0-.747-1.412l-1-1c-1-1-1.412-1.578-1.412-2.741v-.333a2.142,2.142,0,0,1,2.409-2.243c1.744,0,2.409.831,2.409,2.326v.831h-1.578v-.914c0-.582-.249-.83-.831-.83a.745.745,0,0,0-.831.83v.249c0,.582.332.914.831,1.413l1.08,1.08a3.434,3.434,0,0,1,1.412,2.658v.5a2.211,2.211,0,0,1-2.492,2.409,2.32,2.32,0,0,1-2.409-2.492Z" transform="translate(177.856 -3324.822)" fill="#fff"/>
        <path id="Trazado_3685" data-name="Trazado 3685" d="M-34.22,3330.615a1.866,1.866,0,0,0,1.384-2.075v-1.384c0-1.47-.605-2.334-2.421-2.334h-2.594v10.549h1.729v-4.842l1.729,4.842h1.9Zm-.432-1.9a.775.775,0,0,1-.865.864h-.605v-3.286h.605c.605,0,.865.26.865.865Z" transform="translate(70.586 -3324.822)" fill="#fff"/>
        <path id="Trazado_3686" data-name="Trazado 3686" d="M32.026,3324.822H30.037l-1.989,10.549h1.643l.346-1.9h1.816l.346,1.9h1.816Zm-1.816,7.263.692-4.237.692,4.237Z" transform="translate(20.094 -3324.822)" fill="#fff"/>
        <path id="Trazado_3687" data-name="Trazado 3687" d="M-62.531,3324.822H-64.52l-1.989,10.55h1.643l.346-1.9H-62.7l.346,1.9h1.816Zm-1.816,7.263.692-4.237.692,4.237Z" transform="translate(92.543 -3324.822)" fill="#fff"/>
        <rect id="Rect치ngulo_3021" data-name="Rect치ngulo 3021" width="1.816" height="10.549" transform="translate(38.976 0)" fill="#fff"/>
        <path id="Trazado_3688" data-name="Trazado 3688" d="M3.452,3328.713v6.658H1.982v-10.549H3.711l1.9,6.052v-6.052h1.47v10.549H5.527Z" transform="translate(40.065 -3324.822)" fill="#fff"/>
        <path id="Trazado_3689" data-name="Trazado 3689" d="M-121.561,3329.9a1.555,1.555,0,0,0,1.047-1.691v-1.047c0-1.53-.564-2.335-2.335-2.335h-2.577v10.55h2.738c1.772,0,2.416-.806,2.416-2.335v-1.369A1.614,1.614,0,0,0-121.561,3329.9Zm-2.174-3.7h.644a.772.772,0,0,1,.886.886v1.288c0,.564-.242.886-.805.886h-.725Zm1.772,6.845a.806.806,0,0,1-.886.886h-.805v-3.382h.805a.772.772,0,0,1,.886.886Z" transform="translate(137.685 -3324.822)" fill="#fff"/>
      </g>
      <g id="Grupo_11051" data-name="Grupo 11051" transform="translate(20.202 0)">
        <path id="Trazado_3690" data-name="Trazado 3690" d="M-86.883,3192.317v15.745h-2.673V3196.01l-1.847,1.943h-.049v-2.77l2.43-2.867Z" transform="translate(91.451 -3192.268)" fill="#fff"/>
        <path id="Trazado_3691" data-name="Trazado 3691" d="M-60.98,3203.236v-11.128H-63.6l-4.568,11.565v1.653h4.665v2.575h2.527v-2.575h1.069v-2.09Zm-2.478.049H-65.84l2.381-6.512Z" transform="translate(73.615 -3192.108)" fill="#fff"/>
      </g>
    </g>
    <path id="Trazado_3692" data-name="Trazado 3692" d="M-121.372,3431.2c-1.193-1.611-9.009-11.575-19.928-11.575-9.487,0-19.69,8.592-19.69,8.592s-3.819-7.816-11.635-8.592h-.179a.32.32,0,0,0-.3.3.737.737,0,0,0,.119.3c1.014,1.67,3.58,6.444,3.58,11.157,0,4.773-2.566,9.546-3.58,11.217l-.06.12c0,.06-.06.119-.06.179a.282.282,0,0,0,.3.3h.119c7.816-.716,11.694-8.592,11.694-8.592s10.143,8.592,19.69,8.592c10.919,0,18.735-9.964,19.928-11.575.06-.06.06-.06.06-.12v-.238l-.06-.06m-13.9,1.492a3.209,3.209,0,0,1-3.222-3.222,3.158,3.158,0,0,1,3.222-3.162,3.2,3.2,0,0,1,3.222,3.162,3.209,3.209,0,0,1-3.222,3.222m-37.649-31.8h-.06a.282.282,0,0,0-.3.3v2.208a.311.311,0,0,0,.119.239c5.31,4.594,10.262.3,11.456-.836a.058.058,0,0,1,.06-.06.219.219,0,0,1,.179-.06c.06,0,.179.06.238.06,5.967,5.668,12.231,1.074,13.544,0l.119-.119h.239l.119.119c1.313,1.074,7.577,5.668,13.544,0,.06-.06.119-.06.239-.06a.219.219,0,0,1,.179.06.058.058,0,0,1,.06.06c1.134,1.134,6.145,5.43,11.456.836a.312.312,0,0,0,.119-.239v-2.208a.282.282,0,0,0-.3-.3h-.06c-.06,0-.119.06-.179.06a9.582,9.582,0,0,1-11.217-1.551l-.119-.119h-.239c-.06,0-.119.06-.179.119-1.372,1.015-7.637,5.25-13.186.06l-.06-.06a.31.31,0,0,0-.238-.119.452.452,0,0,0-.239.119l-.06.06c-5.549,5.19-11.814.955-13.186-.06-.06-.06-.06-.119-.179-.119h-.239l-.119.119a9.484,9.484,0,0,1-11.217,1.551,1.22,1.22,0,0,1-.3-.06m11.157,9.785a.058.058,0,0,1,.06-.06.219.219,0,0,1,.179-.06c.06,0,.179.06.239.06,5.967,5.668,12.231,1.074,13.544,0l.119-.119h.238l.119.119c1.313,1.074,7.577,5.668,13.544,0,.06-.06.119-.06.239-.06a.219.219,0,0,1,.179.06.058.058,0,0,1,.06.06c1.134,1.134,6.146,5.43,11.456.835a.31.31,0,0,0,.119-.239v-2.208a.282.282,0,0,0-.3-.3h-.06c-.06,0-.119.06-.179.06a9.584,9.584,0,0,1-11.217-1.551l-.119-.12c-.06,0-.06-.06-.119-.06h-.119c-.06,0-.119.06-.179.12-1.372,1.014-7.637,5.25-13.186.06l-.06-.06c-.06-.06-.119-.06-.239-.06-.06,0-.179.06-.239.06l-.06.06c-5.549,5.191-11.814.955-13.186-.06-.06-.06-.06-.12-.179-.12h-.12c-.06,0-.06,0-.119.06l-.12.12a9.583,9.583,0,0,1-11.217,1.551c-.06,0-.119-.06-.179-.06h-.06a.282.282,0,0,0-.3.3v2.208a.309.309,0,0,0,.119.239c5.191,4.594,10.2.3,11.336-.835" transform="translate(-113.11 -200.874)" fill="#fff"/>
  </g>
</svg>
