<svg xmlns="http://www.w3.org/2000/svg" xmlns:xlink="http://www.w3.org/1999/xlink" width="194.451" height="145.99" viewBox="0 0 194.451 145.99">
  <defs>
    <radialGradient id="radial-gradient" cx="0.5" cy="0.5" r="0.5" gradientUnits="objectBoundingBox">
      <stop offset="0" stop-color="#206491"/>
      <stop offset="1" stop-color="#003e64"/>
    </radialGradient>
  </defs>
  <g id="Grupo_12186" data-name="Grupo 12186" transform="translate(-234.576 -5432)">
    <g id="Componente_2_1" data-name="Componente 2 – 1" transform="translate(242.317 5439.79)">
      <path id="Trazado_3239" data-name="Trazado 3239" d="M-1560.751,1317.568l-169.055,14.517a8.865,8.865,0,0,0-8.05,9.521l5.172,81.693a8.849,8.849,0,0,0,8.8,8.211h18.57a8.678,8.678,0,0,1,8.651,8.714l-.011,11.637a3.837,3.837,0,0,0,6.183,3.062l27.816-21.6a8.614,8.614,0,0,1,5.285-1.813h82.323a10.856,10.856,0,0,0,10.729-9.4l13.052-94.3A8.858,8.858,0,0,0-1560.751,1317.568Z" transform="translate(1737.882 -1317.535)" fill="url(#radial-gradient)"/>
    </g>
    <g id="Grupo_11011" data-name="Grupo 11011" transform="translate(234.576 5432)">
      <g id="Grupo_11010" data-name="Grupo 11010" transform="translate(0)">
        <path id="Trazado_3240" data-name="Trazado 3240" d="M-1710.387,1439.363a5.115,5.115,0,0,1-2.271-.536,5.133,5.133,0,0,1-2.865-4.637l.011-11.637a7.385,7.385,0,0,0-2.153-5.243,7.289,7.289,0,0,0-5.207-2.172h-18.571a10.187,10.187,0,0,1-10.087-9.411l-5.173-81.708a10.189,10.189,0,0,1,9.228-10.9l169.056-14.516a10.018,10.018,0,0,1,8.268,3.211,10.162,10.162,0,0,1,2.582,8.533l-13.049,94.272a12.2,12.2,0,0,1-12.007,10.518h-82.323a7.368,7.368,0,0,0-4.5,1.543l-27.817,21.6A5.089,5.089,0,0,1-1710.387,1439.363Zm132.841-138.2c-.217,0-.435.009-.654.028l-169.056,14.517a7.593,7.593,0,0,0-6.873,8.129l5.173,81.709a7.585,7.585,0,0,0,7.513,6.995h18.571a9.843,9.843,0,0,1,7.032,2.933,9.97,9.97,0,0,1,2.908,7.08l-.011,11.637a2.518,2.518,0,0,0,1.424,2.3,2.485,2.485,0,0,0,2.682-.271l27.817-21.6a9.95,9.95,0,0,1,6.073-2.083h82.323a9.6,9.6,0,0,0,9.451-8.279l13.052-94.3a7.583,7.583,0,0,0-1.919-6.382A7.46,7.46,0,0,0-1577.546,1301.165Z" transform="translate(1756.731 -1298.568)" fill="#f3f3f3"/>
      </g>
    </g>
    <g id="Grupo_11014" data-name="Grupo 11014" transform="matrix(0.999, -0.035, 0.035, 0.999, 1383.098, 4141.649)">
      <g id="Grupo_11012" data-name="Grupo 11012" transform="translate(-1141.202 1297.186)">
        <path id="Trazado_3241" data-name="Trazado 3241" d="M-1141.2,1300.361a31.456,31.456,0,0,1,4.958-.354c3.188,0,5.388.658,6.956,1.973a7.626,7.626,0,0,1,2.656,6.273,8.827,8.827,0,0,1-2.656,6.78c-1.695,1.543-4.4,2.327-7.715,2.327a34.028,34.028,0,0,1-4.2-.228Zm3.111,14.444a11.548,11.548,0,0,0,1.72.076c4.047.025,6.451-2.2,6.451-6.526.025-3.769-2.15-5.919-6.046-5.919a9.964,9.964,0,0,0-2.125.177Z" transform="translate(1141.202 -1299.223)" fill="#fff"/>
        <path id="Trazado_3242" data-name="Trazado 3242" d="M-1072.177,1326.116a19.763,19.763,0,0,0,.177,2.96h-2.808l-.2-1.366h-.076a4.576,4.576,0,0,1-3.643,1.644,3.657,3.657,0,0,1-3.87-3.668c0-3.112,2.757-4.68,7.311-4.655v-.2c0-.809-.329-2.15-2.5-2.15a6.525,6.525,0,0,0-3.314.911l-.607-2.024a8.873,8.873,0,0,1,4.452-1.088c3.946,0,5.084,2.5,5.084,5.185Zm-3.036-3.061c-2.2-.051-4.3.43-4.3,2.3a1.633,1.633,0,0,0,1.771,1.771,2.52,2.52,0,0,0,2.428-1.7,2.232,2.232,0,0,0,.1-.683Z" transform="translate(1098.889 -1311.116)" fill="#fff"/>
        <path id="Trazado_3243" data-name="Trazado 3243" d="M-1033.476,1306.1v3.162h2.959v2.328h-2.959v5.438c0,1.492.4,2.276,1.594,2.276a3.836,3.836,0,0,0,1.214-.151l.051,2.378a6.708,6.708,0,0,1-2.251.329,3.615,3.615,0,0,1-2.682-1.037,4.907,4.907,0,0,1-.961-3.44v-5.792h-1.771v-2.328h1.771v-2.276Z" transform="translate(1066.89 -1303.625)" fill="#fff"/>
        <path id="Trazado_3244" data-name="Trazado 3244" d="M-992.753,1322.8c0,4.528-3.187,6.552-6.324,6.552a5.956,5.956,0,0,1-6.172-6.349c0-4.048,2.656-6.526,6.375-6.526C-995.206,1316.479-992.753,1319.059-992.753,1322.8Zm-9.283.127c0,2.378,1.164,4.174,3.061,4.174,1.771,0,3.01-1.745,3.01-4.224,0-1.922-.86-4.123-2.985-4.123C-1001.151,1318.755-1002.036,1320.88-1002.036,1322.929Z" transform="translate(1043.039 -1311.116)" fill="#fff"/>
        <path id="Trazado_3245" data-name="Trazado 3245" d="M-922.948,1297.186v14.494c0,1.265.051,2.631.1,3.466h-2.783l-.126-1.948h-.051a4.434,4.434,0,0,1-4.022,2.226c-2.934,0-5.261-2.5-5.261-6.3-.025-4.123,2.555-6.577,5.515-6.577a3.923,3.923,0,0,1,3.465,1.619h.051v-6.982Zm-3.111,10.776a4.382,4.382,0,0,0-.076-.809,2.726,2.726,0,0,0-2.682-2.2c-2,0-3.111,1.771-3.111,4.073,0,2.251,1.113,3.9,3.086,3.9a2.744,2.744,0,0,0,2.681-2.2,3.46,3.46,0,0,0,.1-.911Z" transform="translate(992.382 -1297.186)" fill="#fff"/>
        <path id="Trazado_3246" data-name="Trazado 3246" d="M-879.234,1323.789c.076,2.226,1.821,3.187,3.794,3.187a9.252,9.252,0,0,0,3.415-.557l.455,2.15a11.559,11.559,0,0,1-4.3.784c-4,0-6.349-2.479-6.349-6.248,0-3.415,2.074-6.627,6.02-6.627,4.022,0,5.312,3.288,5.312,5.995a7.652,7.652,0,0,1-.1,1.315Zm5.413-2.175c.025-1.139-.481-3.01-2.555-3.01a3.044,3.044,0,0,0-2.858,3.01Z" transform="translate(954.207 -1311.116)" fill="#fff"/>
      </g>
      <g id="Grupo_11013" data-name="Grupo 11013" transform="translate(-1136.017 1320.001)">
        <path id="Trazado_3247" data-name="Trazado 3247" d="M-1119.057,1381.689a1.649,1.649,0,0,1-1.771,1.67,1.635,1.635,0,0,1-1.72-1.67,1.661,1.661,0,0,1,1.745-1.695A1.662,1.662,0,0,1-1119.057,1381.689Zm-3.314,15.76v-12.319h3.137v12.319Z" transform="translate(1122.548 -1379.792)" fill="#fff"/>
        <path id="Trazado_3248" data-name="Trazado 3248" d="M-1098.878,1401.413c0-1.417-.025-2.605-.1-3.668h2.732l.152,1.846h.076a4.442,4.442,0,0,1,3.921-2.124c2.15,0,4.376,1.391,4.376,5.287v7.311h-3.111v-6.956c0-1.771-.658-3.111-2.352-3.111a2.611,2.611,0,0,0-2.428,1.821,3.169,3.169,0,0,0-.127,1.012v7.235h-3.136Z" transform="translate(1105.53 -1392.408)" fill="#fff"/>
        <path id="Trazado_3249" data-name="Trazado 3249" d="M-1046.671,1387.092v3.162h2.959v2.327h-2.959v5.438c0,1.493.4,2.277,1.594,2.277a3.837,3.837,0,0,0,1.214-.152l.051,2.378a6.71,6.71,0,0,1-2.251.329,3.615,3.615,0,0,1-2.681-1.037,4.907,4.907,0,0,1-.961-3.44v-5.793h-1.771v-2.327h1.771v-2.277Z" transform="translate(1071.232 -1384.917)" fill="#fff"/>
        <path id="Trazado_3250" data-name="Trazado 3250" d="M-1015.458,1404.778c.076,2.226,1.821,3.187,3.795,3.187a9.251,9.251,0,0,0,3.415-.557l.455,2.15a11.551,11.551,0,0,1-4.3.784c-4,0-6.349-2.479-6.349-6.248,0-3.415,2.074-6.627,6.02-6.627,4.022,0,5.312,3.288,5.312,5.995a7.65,7.65,0,0,1-.1,1.316Zm5.413-2.176c.025-1.138-.48-3.01-2.555-3.01a3.044,3.044,0,0,0-2.859,3.01Z" transform="translate(1047.38 -1392.408)" fill="#fff"/>
        <path id="Trazado_3251" data-name="Trazado 3251" d="M-968.93,1401.717c0-1.669-.025-2.858-.1-3.971h2.707l.1,2.352h.1a3.673,3.673,0,0,1,3.365-2.631,3.279,3.279,0,0,1,.734.076v2.935a4.328,4.328,0,0,0-.911-.1,2.743,2.743,0,0,0-2.783,2.353,5.333,5.333,0,0,0-.1.961v6.374h-3.111Z" transform="translate(1011.703 -1392.408)" fill="#fff"/>
        <path id="Trazado_3252" data-name="Trazado 3252" d="M-936.926,1391.636c.076,2.226,1.821,3.187,3.794,3.187a9.253,9.253,0,0,0,3.415-.556l.455,2.15a11.551,11.551,0,0,1-4.3.784c-4,0-6.349-2.479-6.349-6.248,0-3.415,2.074-6.628,6.02-6.628,4.022,0,5.312,3.288,5.312,5.995a7.686,7.686,0,0,1-.1,1.316Zm5.413-2.176c.025-1.138-.48-3.01-2.555-3.01a3.044,3.044,0,0,0-2.859,3.01Zm1.417-10.194-3.111,3.744h-2.15l2.2-3.744Z" transform="translate(990.678 -1379.266)" fill="#fff"/>
        <path id="Trazado_3253" data-name="Trazado 3253" d="M-892.258,1407.206a6.939,6.939,0,0,0,3.162.885c1.366,0,1.973-.557,1.973-1.366,0-.834-.506-1.265-2.024-1.8-2.4-.835-3.415-2.15-3.39-3.592,0-2.176,1.8-3.87,4.654-3.87a7.235,7.235,0,0,1,3.263.733l-.607,2.2a5.536,5.536,0,0,0-2.605-.708c-1.113,0-1.72.531-1.72,1.29,0,.784.582,1.164,2.15,1.72,2.226.809,3.263,1.948,3.288,3.769,0,2.226-1.745,3.87-5.008,3.87a7.94,7.94,0,0,1-3.744-.885Z" transform="translate(956.709 -1392.408)" fill="#fff"/>
      </g>
    </g>
  </g>
</svg>
