<svg xmlns="http://www.w3.org/2000/svg" xmlns:xlink="http://www.w3.org/1999/xlink" width="121" height="121" viewBox="0 0 121 121">
  <defs>
    <clipPath id="clip-path">
      <path id="SVGID" d="M1270.361,215.723a42.03,42.03,0,0,1,5.481,10.728,41.707,41.707,0,0,0-5.5-10.749" transform="translate(-1270.34 -215.702)" fill="none"/>
    </clipPath>
  </defs>
  <g id="Grupo_12183" data-name="Grupo 12183" transform="translate(-393 -5046)">
    <circle id="Elipse_497" data-name="Elipse 497" cx="60.5" cy="60.5" r="60.5" transform="translate(393 5046)" fill="#4382dd"/>
    <path id="Trazado_1178" data-name="Trazado 1178" d="M53.993,0A53.993,53.993,0,1,1,0,53.993,53.993,53.993,0,0,1,53.993,0Z" transform="translate(400 5053)" fill="#fff"/>
    <g id="Grupo_11007" data-name="Grupo 11007" transform="translate(-394 4957.149)">
      <path id="Trazado_3225" data-name="Trazado 3225" d="M806.239,149.814a41.7,41.7,0,1,0,41.7-41.7h-.01A41.693,41.693,0,0,0,806.24,149.8a.084.084,0,0,0,0,.011" transform="translate(-0.2 -0.217)" fill="#ededed"/>
      <path id="Trazado_3226" data-name="Trazado 3226" d="M829.587,175.381c-4.42-4.9-6.668-13.781-7.008-20.29a54.327,54.327,0,0,1,2.979-21.954,1.7,1.7,0,0,0-1.166-2.332,41.7,41.7,0,1,1,18.552,56.279c-.7-.339-1.378-.71-2.046-1.06a39.5,39.5,0,0,1-4.8-3.18,36.958,36.958,0,0,1-4.357-3.891c-.392-.382-.763-.774-1.124-1.177l-.509-.583a1.909,1.909,0,0,0-.477-1.749" transform="translate(-13.763 -0.162)" fill="#ededed"/>
      <g id="Grupo_11001" data-name="Grupo 11001" transform="translate(806.028 108.012)">
        <path id="Trazado_3227" data-name="Trazado 3227" d="M806.174,236.525a41.46,41.46,0,0,0,10.781,27.965h.18a.96.96,0,0,1,.731.53c.128.233.149.456.254.657a36.933,36.933,0,0,0,4.315,3.87h.361c.5,0,.572.244.795.615a2.662,2.662,0,0,0,1.156,1.06,8.754,8.754,0,0,0,1.707.424c.361.074.509.1.636.466a4.169,4.169,0,0,1,.149.721,22.067,22.067,0,0,0,2.046,1.06c0-.986-.678-1.8-.71-2.8a4.9,4.9,0,0,0,0-.689c-.053-.265-.2-.318-.3-.54s-.265-.848,0-1.06.742-.286.838-.805a1.574,1.574,0,0,0,0-.445,3.554,3.554,0,0,1,.138-1.494,1.059,1.059,0,0,1,1.06-.562c.382,0,.721.254,1.06.117.2-.063.3-.286.488-.35a1.213,1.213,0,0,1,.477,0H833.8a3.187,3.187,0,0,0,1.06-.286c.519-.159.647-.413.922-.795s.5-.54.7-.848c.074-.106.18-.2.244-.3a4.908,4.908,0,0,0,.2-.53c.159-.307.54-.414.657-.763a2.326,2.326,0,0,0,0-.975c0-.254-.233-.657-.117-.891s.572-.18.784-.18a1.061,1.061,0,0,1,.944.562,1.557,1.557,0,0,1,.339.859,3.191,3.191,0,0,1,0,.838c-.085.339-.488.424-.647.731s-.085.795-.254,1.155a1.926,1.926,0,0,0-.17.848c-.106.689-.742.827-1.325.805-.233,0-.88-.117-1.06.117s0,.891,0,1.155a2.656,2.656,0,0,0,0,.71,1.673,1.673,0,0,0,.583.795,3.627,3.627,0,0,0,1.2.869,3.244,3.244,0,0,0,1.166.466,8.079,8.079,0,0,1,1.229.223,13.345,13.345,0,0,1,1.442.18,4.217,4.217,0,0,0,.869.3,3.257,3.257,0,0,0,.562,0,4.506,4.506,0,0,1,.519,0,4.115,4.115,0,0,0,.965,0,4.874,4.874,0,0,0,.6-.328,1.874,1.874,0,0,1,.668-.159,4.245,4.245,0,0,1,1.41.1c.456.138,1.135.371,1.59.1.223-.127.18-.149.286-.361a3.019,3.019,0,0,1,.361-.382c.138-.128.456-.392.466-.583s-.127-.244-.18-.328c-.223-.328-.466-.647-.668-.986a3.745,3.745,0,0,1-.774-1.516,2.667,2.667,0,0,1,.1-1.124,8.568,8.568,0,0,0,.127-2.2,3.178,3.178,0,0,0-.085-1.315c-.106-.244-.318-.413-.371-.689a8.967,8.967,0,0,1,0-1.771c0-.445-.212-1.389.3-1.558.774-.275,1.176.445,1.145,1.06a12.762,12.762,0,0,0,.254,1.42,4.25,4.25,0,0,0,0,1.219c.149.382.54.551.731.88a2.679,2.679,0,0,1,0,1.124,2.418,2.418,0,0,0,.223,1.166,6.542,6.542,0,0,1,.519,1.145,9.361,9.361,0,0,1,0,2.035,2.766,2.766,0,0,0,.477,1.9c.254.3.361.371,0,.615a11.278,11.278,0,0,1-1.706.869,7.554,7.554,0,0,0-1.251.509,3.06,3.06,0,0,1-1.06.276c-.5.128-1,.286-1.474.435-.2.074-.795,0-.869.233a1.432,1.432,0,0,0,1.272.636,4.824,4.824,0,0,1,1.484.361,4.629,4.629,0,0,1,1.06.626,1.907,1.907,0,0,0,1.42.572,5.029,5.029,0,0,1,1.685.149,7.432,7.432,0,0,0,2.12.594h1.06a7.43,7.43,0,0,1,1.94.063,12.16,12.16,0,0,0,2.629.18h.689a3.968,3.968,0,0,1,1.9.138l.233.149a41.441,41.441,0,0,0,17.714-13.23,2.279,2.279,0,0,1-.721-.7,1.827,1.827,0,0,1-.18-.6,3.28,3.28,0,0,1-.307-1.06,10.068,10.068,0,0,1,.254-1.166c0-.361.085-1.2-.244-1.442s-.689-.1-.933-.149a3.249,3.249,0,0,1-.752-.361c-.626-.371-.594-.742-.361-1.357.117-.318.138-.636.223-.954a3.539,3.539,0,0,1,.6-1.06,4.908,4.908,0,0,0,.54-1.569,1.816,1.816,0,0,1,.307-.742c.085-.074.223-.138.318-.212a3.817,3.817,0,0,0,.626-1.156,4.9,4.9,0,0,1,.721-1.06c.424-.445.827-.88,1.219-1.368.254-.3.583-.519.816-.805s.254-.583.435-.827a2.786,2.786,0,0,0,.541-.753,9.926,9.926,0,0,0,.9-2.417,18.6,18.6,0,0,0,0-2.427,7.906,7.906,0,0,0-.159-1.484,3.18,3.18,0,0,0-.361-.922,1.552,1.552,0,0,1-.233-.414,3.928,3.928,0,0,0,0-1,1.556,1.556,0,0,0-.488-.594,12.56,12.56,0,0,1-.975-1.06,5.551,5.551,0,0,1-.434-1.06,2.056,2.056,0,0,0-.975-.774,1.3,1.3,0,0,0-.891-.233,1.719,1.719,0,0,1-1.294-.551,3.02,3.02,0,0,1-.636-.7,3.418,3.418,0,0,0-.276-.509,1.793,1.793,0,0,0-1.06-.678h-.382a4.738,4.738,0,0,1-.763,0,7.5,7.5,0,0,1-.933-.159,5.666,5.666,0,0,0-.848,0h-.615a3.681,3.681,0,0,0-1.23.074,25.377,25.377,0,0,1-3.1,1.41c-.6.138-1.24.063-1.845.18a2.008,2.008,0,0,1-.753,0c-.414-.127-.827-.318-1.24-.074-.18.106-.318.3-.477.4s-.4.18-.583.307a3.3,3.3,0,0,0-.763.774c-.318.445-.668.859-1,1.272a7.151,7.151,0,0,1-.562.9c-.244.265-.689.3-.975.53s-.382.752-.848.859a5.285,5.285,0,0,0-.87.233c-.275.1-.636.127-.816.371-.328.456-.339,1.06-.784,1.463s-1.452,1.272-1.24,2.194c.17.763.805,1.378,1.06,2.12a1.47,1.47,0,0,1,.063.848,3.961,3.961,0,0,0-.212.53,6.23,6.23,0,0,1,0,.89,4.959,4.959,0,0,1-.414.774c-.233.4-.424.838-.647,1.251a1.738,1.738,0,0,1-1.166.933,1.062,1.062,0,0,1-.477,0,.772.772,0,0,0-.54,0,1.39,1.39,0,0,0-.774.572,9.66,9.66,0,0,0,0,1.06,3.922,3.922,0,0,1-.339,1.24,2.577,2.577,0,0,1-1.325,1.007,4.383,4.383,0,0,0-1.229.54,2.982,2.982,0,0,0-.636,1.145c-.244.509-.816.615-1.261.922a2.011,2.011,0,0,1-.965.562,7.39,7.39,0,0,1-1.876,0c-.4-.053-.753-.318-1.155-.392s-.922-.244-1.06-.721a2.69,2.69,0,0,1,0-1.2c.1-.307.487-.361.742-.509a3.522,3.522,0,0,1,1.06-.509,2.681,2.681,0,0,0,.583-.085,5.529,5.529,0,0,0,1.261-1.06,1.357,1.357,0,0,0,.54-1.06,1.956,1.956,0,0,0-.117-1.134,6.452,6.452,0,0,0-1.7.138A7.6,7.6,0,0,1,844,249a1.75,1.75,0,0,1-1.484-.509c-.361-.509,0-1.336-.6-1.706a11.742,11.742,0,0,0-1.452,1.9c-.328.636-.572,1.208-1.3,1.42-.328.074-1.983.244-1.866-.5,0-.265.562-.5.7-.678a3.661,3.661,0,0,0,.869-1.8c.1-.54.307-.54.721-.859s.445-.594.742-.838a2.629,2.629,0,0,0,.827-1.06c.17-.35,0-1.06.328-1.325s.721-.128.975-.128a.892.892,0,0,1,.827.276,3.424,3.424,0,0,0,.954.657c.244.275.128.689.128,1.06a1.769,1.769,0,0,0,.117,1.06,2.365,2.365,0,0,0,1.823.827c.466-.063.456-.467.636-.805a9.1,9.1,0,0,1,.54-.763,1.231,1.231,0,0,1,1.06-.583.35.35,0,0,1,.173.463.369.369,0,0,1-.025.046v.17c.085.254.922.71.965.721.371.117.773.275.869-.18v-.456a1.452,1.452,0,0,0-.519-1.315c-.488-.371-.795-.562-.848-1.219a6.583,6.583,0,0,0-.223-1.685,4.06,4.06,0,0,0-.191-.615,10.761,10.761,0,0,1-.1-1.548c0-.361-.138-1.145.244-1.367h.361c.18,0,.254.084.244.233.18.233.106.4.456.509s1,.244,1.251,0,.1-.286.1-.424v-.943a2.964,2.964,0,0,1,0-1.06c.128-.265.551-.286.891-.276a1.01,1.01,0,0,0,.774-.17c.17-.17.074-.784.307-1.113s.53-.805.933-.742c.127,0,.233.149.328.17a1.251,1.251,0,0,0,.657,0,1.341,1.341,0,0,0,.361-.149,2.119,2.119,0,0,1,.731-.063h1.473c.5,0,.933.212,1.42.244.774,0,.784-.382,1.124-.954s.71-.678.965-1.06a17.764,17.764,0,0,0,.954-1.717,5.185,5.185,0,0,0,.509-1.4c.127-.636-.795-.393-1.166-.551s-.784-.679-1.187-.838a3.75,3.75,0,0,0-1.187-.138c-.35,0-1.06-.18-1.325,0-.138.1-.127.244-.191.371a7.654,7.654,0,0,0-.572.986c-.128.371-.276.7-.392,1.06a1.208,1.208,0,0,1-.657.731,1.581,1.581,0,0,1-1.283-.2,2.955,2.955,0,0,1-.869-.657c-.159-.244-.1-.456-.127-.71a1.145,1.145,0,0,0-.254-.626c-.212-.371-.445-1.24-1.06-1.06-.3.1-.626.509-.9.678a9.757,9.757,0,0,0-.922.721,5.933,5.933,0,0,1-.784.594,2.733,2.733,0,0,1-1.208,0c-.5,0-.912-.328-1.336,0a2.537,2.537,0,0,1-.965.594,5.954,5.954,0,0,1-.753.149c-.414,0-.371,0-.551-.223a1.32,1.32,0,0,0-.774-.626,1.284,1.284,0,0,0-1.06.254,8.294,8.294,0,0,0,.615,1.06.478.478,0,0,1-.063.594c-.138.371-.445.71-.562,1.06a1.493,1.493,0,0,0-.127.71.965.965,0,0,1-.382.88,3.331,3.331,0,0,1-1.06.763,1.115,1.115,0,0,1-1.166-.265c-.562-.371-.816-1.06-1.558-1.06-.509,0-1.368.2-1.8-.138s-.212-.774-.265-1.155a7.457,7.457,0,0,1-.084-.965c0-.721-.626-.933-1.23-1.124-.9-.286-1.961-.636-2.12-1.7a3.986,3.986,0,0,1,2.682.265,9.991,9.991,0,0,1,1.473,1.3,2.121,2.121,0,0,0,.891.583c.244.1.477.2.731.328s.647.657,1.124.7a6.1,6.1,0,0,0,.88,0c1.558,0,.339-1.548.275-2.353,0-.488,0-.742.509-.805s1.06-.18,1.06-.647-.477-.562-.71-.753a16.287,16.287,0,0,0-1.177-1.24c-.742-.6-1.876-.371-2.788-.371-.572,0-1.06-.127-1.675-.127h-2.121a1.642,1.642,0,0,0-.456,0,2.637,2.637,0,0,1-.6.286,3.038,3.038,0,0,1-.933.053,5.21,5.21,0,0,0-1.155.074c-.414.1-.414.339-.361.721s.1.509.138.763a.72.72,0,0,1-.382.477,5.689,5.689,0,0,0-.7,1.124.487.487,0,0,1-.4.276,7.311,7.311,0,0,0-.7.583,1.628,1.628,0,0,1-.922.572h-2.12a2.784,2.784,0,0,1-.891,0,.562.562,0,0,1-.371-.371,5.956,5.956,0,0,0-.636-.488c-.551-.615,0-1.664-.615-2.248-.519.35,0,1,0,1.4a4.558,4.558,0,0,1,0,.848,1.6,1.6,0,0,1-.53.933c-.223.275-.731.774-1.145.54s-.371-.848-.487-1.155a4.072,4.072,0,0,0-.615-.975,12.819,12.819,0,0,1-1.633-1.993c-.2-.4-.138-.891-.339-1.283-.117-.212-.265-.307-.328-.562a7.4,7.4,0,0,1,0-1.675,2.6,2.6,0,0,0-.074-.7,9.168,9.168,0,0,0-.5-1.378c-.6.128-.964.679-1.537.784a2.993,2.993,0,0,1-.752,0h-1.017a1.939,1.939,0,0,1-.382-1.06v-2.354a1.771,1.771,0,0,0-.318-.89c-.18-.233-.456-.35-.54-.647a5.971,5.971,0,0,1,0-1.569.881.881,0,0,1,.339-.71c.17-.138.456-.17.6-.339a2.033,2.033,0,0,0,.159-1.06c-.011-.382,0-.689,0-1.06a41.536,41.536,0,0,0-8.16,24.809" transform="translate(-806.173 -194.94)" fill="#4da0dc"/>
        <path id="Trazado_3228" data-name="Trazado 3228" d="M869.1,123.6c.191-.063.361-.212.551-.254a3.272,3.272,0,0,0,.456,0c.191-.063.254-.191.361-.35s.572-.456.572-.827a3.232,3.232,0,0,0,0-.551c0-.18-.2-.276-.244-.445.127-.265.869-.117,1.06,0a1.156,1.156,0,0,0,.679.138c.339-.064.636-.424.859-.668s.212-.382.371-.477.594-.159.859-.307a2.479,2.479,0,0,0,.891-.721c.138-.191.244-.392.392-.572a4.409,4.409,0,0,1,.763-.562c.149-.117.276-.276.414-.4a7.324,7.324,0,0,1,.986-.4,2.928,2.928,0,0,0,.572-.371,2.5,2.5,0,0,1,.721-.382,5.04,5.04,0,0,0,1.166-.6,1.536,1.536,0,0,1,.392-.233,3.513,3.513,0,0,0,.838-.5,6.133,6.133,0,0,0,.615-.392c.17-.149.318-.191.414-.382s.085-.414.223-.466.233,0,.361,0a1.465,1.465,0,0,0,.509-.509c.127-.18.244-.2.435-.3s.382-.244.583-.361a1.36,1.36,0,0,0,.424-.816,2.111,2.111,0,0,1,.085-.371,41.789,41.789,0,0,1,21.53-2.12c.149.149.276.223.318.435a5.377,5.377,0,0,1,0,.583.814.814,0,0,0,.233.54,2.239,2.239,0,0,0,.488.117,1.59,1.59,0,0,1,.467.318c.138.106.318.159.414.307a1.058,1.058,0,0,1,.149.509.881.881,0,0,0,.244.519.72.72,0,0,1,0,.763,2.952,2.952,0,0,1-.488.774.643.643,0,0,0-.159.3c0,.127,0,.074-.106.159s-.594,0-.848.233a2.538,2.538,0,0,1-.307.276c-.106.063-.212.085-.328.149a4.3,4.3,0,0,0-.488.742c-.149.223-.074.414-.106.679-.063.466-.445.562-.88.594a3.405,3.405,0,0,0-.657,0l-.265.223c-.095.085-.318.18-.371.3v.212c0,.17,0,.509.149.647l.307.117c.18.085.583.18.689.35s0,.414-.117.572a.762.762,0,0,1-.572.466.612.612,0,0,1-.414,0c-.127-.063-.191-.2-.328-.254a1.6,1.6,0,0,0-.392-.085.516.516,0,0,1-.318-.128l-.18-.223c-.138-.117-.922-.191-.986,0a.935.935,0,0,0,.106.731c.138.17.265.18.265.414a2.891,2.891,0,0,1-.339,1.06,2.289,2.289,0,0,0,1.58.3,1.054,1.054,0,0,1,.572.159c.17.128.138.276,0,.435a3.959,3.959,0,0,1-.466.763.773.773,0,0,1-.361.307,3.686,3.686,0,0,1-.964,0,7.684,7.684,0,0,0-1.061-.064c-.254,0-.657.18-.88,0s-.106-.244-.2-.328a.6.6,0,0,0-.382-.085.582.582,0,0,1-.53-.17c-.307-.276-.731-.128-1.06-.265-.117,0-.212-.117-.339-.159a1.566,1.566,0,0,0-.54-.053,1.664,1.664,0,0,1-.827-.074.92.92,0,0,0-.265-.138,1.683,1.683,0,0,0-.4,0,3.473,3.473,0,0,1-.477-.074,2.413,2.413,0,0,1-.795-.254c-.254-.191-.212-.519-.2-.816a1.814,1.814,0,0,1,0-.35c0-.138.149-.244.18-.382a17.708,17.708,0,0,0-2.12,0c-.456-.063-1.06-.562-.838-1.06a1.057,1.057,0,0,1,.382-.414,1.75,1.75,0,0,1,.668,0,1.591,1.591,0,0,0,.805-.063c.307-.2.435-.6.848-.647a2.314,2.314,0,0,0,.774-.265.9.9,0,0,0,.35-.339c.106-.149.127-.2.053-.35a1.155,1.155,0,0,0-.6-.414,1.049,1.049,0,0,0-.5-.1,1.342,1.342,0,0,1-.541,0c-.138,0-.149-.106-.244-.212-.254-.254-.986-.138-1.3-.128a6.393,6.393,0,0,1-.9,0,1.648,1.648,0,0,0-.329-.063c-.18,0-.318.18-.445.275s-.223.191-.4.159a1.47,1.47,0,0,0-.6-.085c-.233.063-.286.307-.392.488a1.948,1.948,0,0,1-.392.435,1.061,1.061,0,0,0-.424.869c.371.2,1.06.276,1.261.626a1.189,1.189,0,0,1,.149.731c-.063.572-.827.626-1.283.6a3.236,3.236,0,0,0-.784,0c-.212.074-.286.265-.414.424a.8.8,0,0,1-.6.307,2.121,2.121,0,0,0,1.8,1.06,2.6,2.6,0,0,0,1.177-.17,1.321,1.321,0,0,0,.519-.414c.085-.106.106-.149.254-.159a2.509,2.509,0,0,1,.626,0l.233.191c.18.127.424.149.53.361a1.952,1.952,0,0,1,.128.742c0,.5-.286.647-.71.71a8.369,8.369,0,0,1-.869.17h-.456a7.825,7.825,0,0,0-1.06,0c-.191,0-.339.149-.541.212a2.252,2.252,0,0,1-.71.074,1.832,1.832,0,0,0-.668.138,1.3,1.3,0,0,1-.53.1H882.8c-.106,0-.307-.074-.393,0s-.138.361-.191.466a.727.727,0,0,0-.116.382,1.837,1.837,0,0,1,0,.414,5.232,5.232,0,0,0-.149.551.585.585,0,0,0,.233.583c.233.244.4.2.594.328a1.059,1.059,0,0,0,.53.244h1.728a2.4,2.4,0,0,0,.668-.138,1.986,1.986,0,0,1,.657-.117,1.908,1.908,0,0,0,.806-.223,2.436,2.436,0,0,1,.848-.286.7.7,0,0,0,.435-.17l.233-.17.2-.212c.254-.117.477.117.636.3s.466.54.721.805a.858.858,0,0,0,.382.265,2.7,2.7,0,0,0,.583,0,1.694,1.694,0,0,0,.572-.35,1.142,1.142,0,0,1,.679-.233h2.184c.2.074.35.456.4.636a1.738,1.738,0,0,1-.679,1.6,1.374,1.374,0,0,1-.265.212,3.1,3.1,0,0,0-.424.117c-.3.17-.275.572-.647.636s-1.261,0-1.484.583a.525.525,0,0,1-.085.339,1.251,1.251,0,0,1-.265.414c-.149.191-.127.424-.286.636a8.807,8.807,0,0,1-.954.933,1.379,1.379,0,0,1-.689.424,7.26,7.26,0,0,1-1.792.064c-.382,0-.742-.074-1.134-.074h-4.887a.917.917,0,0,1-.519-.1,1.446,1.446,0,0,1-.382-.731,1.8,1.8,0,0,1,0-.477,1.459,1.459,0,0,1,.223-.53,2.875,2.875,0,0,0,.074-1.134.862.862,0,0,0-.159-.615l-.128-.191c-.159-.191-.413-.233-.615-.382s-.2-.339-.191-.594v-.806a2.809,2.809,0,0,0,0-.424c0-.3-.276-.424-.223-.763a1.486,1.486,0,0,1,.18-.572l.318-.106c.212-.1.509-.328.519-.583a5.617,5.617,0,0,0-.223-.827,2.349,2.349,0,0,1,0-.477v-.71c0-.53.594-.6.954-.89a1.217,1.217,0,0,0,.4-.488.875.875,0,0,0-.339-.53.829.829,0,0,0-.636-.149,1.9,1.9,0,0,0-.647,0c-.519.3-.318,1.134-.318,1.611a2.4,2.4,0,0,1,0,.731c-.074.159-.3.307-.414.435a.774.774,0,0,1-.53.286,2.682,2.682,0,0,1-.583,0c-.254,0-.445-.106-.445-.382a.827.827,0,0,1,.339-.657,1.59,1.59,0,0,0,.541-.583,1.619,1.619,0,0,0,.074-.784c0-.128.074-.467,0-.562s-.519,0-.626,0a1.771,1.771,0,0,0-.742.149c-.138.1-.18.265-.307.339a1.824,1.824,0,0,1-1.06.085,1.325,1.325,0,0,0-.986.53,1.371,1.371,0,0,0-.414.541,2.845,2.845,0,0,1-.943.965c-.318.307-.467.7-.763,1.007-.212,0-.286.074-.5.074-.371,0-.424,0-.6.361a1.727,1.727,0,0,1-.318.414l-.149.223c-.244.138-.562-.286-.657-.456a.993.993,0,0,1-.17-.594,2.439,2.439,0,0,0,0-.54c-.17-.4-.944-.361-1.272-.35-.159,0-.5.1-.583-.1.193-.21.235-.284.458-.358Z" transform="translate(-858.452 -108.839)" fill="#4da0dc"/>
        <path id="Trazado_3229" data-name="Trazado 3229" d="M1212.434,175.015c-.265.149-.435.1-.6-.18s-.233-.445-.382-.647a1.347,1.347,0,0,0-1.283-.53,1.068,1.068,0,0,0-.371,0c-.17.053-.233.191-.414.223a4.185,4.185,0,0,1-1.452,0c-.4-.063-.6-.4-.848-.721a4.073,4.073,0,0,1-.647-1.41,3.392,3.392,0,0,1,0-.922,2.215,2.215,0,0,0-.222-.9,4.1,4.1,0,0,1-.191-.678,2.015,2.015,0,0,0-.074-.912c-.1-.17-.244-.3-.328-.477s-.276-.519-.382-.763l-.063-.286a1.884,1.884,0,0,1-.2-.5v-.53c0-.169-.159-.4-.18-.615a3.421,3.421,0,0,1,0-.466,8.464,8.464,0,0,0-.583-1.929,1.772,1.772,0,0,0-.466-.71,3.025,3.025,0,0,1-.615-.657,8.27,8.27,0,0,1-.276-.912,2.272,2.272,0,0,0-.53-.7,2.59,2.59,0,0,1-.466-.7,3,3,0,0,0-.6-.721,2.471,2.471,0,0,1-.583-.657c-.074-.18-.074-.392-.138-.572a2.506,2.506,0,0,1-.106-.551,2.968,2.968,0,0,0-.35-.943c-.128-.233-.106-.572-.276-.763a4.884,4.884,0,0,0-.774-.626,9.52,9.52,0,0,1-.763-.689,2.993,2.993,0,0,1-.5-.54c-.17-.265-.361-.488-.541-.731s-.191-.477-.392-.626-.6,0-.71-.275v-.17a2.33,2.33,0,0,0-.138-.3c-.149-.4,0-.848-.18-1.261a1.917,1.917,0,0,0-.255-.583c-.127-.17-.371-.3-.445-.509a2.319,2.319,0,0,1,0-.382,1.709,1.709,0,0,0-.106-.382,1.382,1.382,0,0,0-.212-.572l-.3-.435a2.894,2.894,0,0,1-.35-.6,2.037,2.037,0,0,1-.233-.784v-.424c0-.128-.392-.307-.54-.456a7.592,7.592,0,0,0-.583-.562,3.359,3.359,0,0,1-.594-.689,41.707,41.707,0,0,1,20.249,31.727" transform="translate(-1129.24 -137.671)" fill="#4da0dc"/>
      </g>
      <g id="Grupo_11005" data-name="Grupo 11005" transform="translate(881.718 125.438)">
        <g id="Grupo_11004" data-name="Grupo 11004" transform="translate(0 0)">
          <g id="Grupo_11003" data-name="Grupo 11003" clip-path="url(#clip-path)">
            <g id="Grupo_11002" data-name="Grupo 11002" transform="translate(0.01)">
              <path id="Trazado_3230" data-name="Trazado 3230" d="M1270.4,215.7h5.513v10.77H1270.4Z" transform="translate(-1270.404 -215.702)" fill="#e06b58"/>
            </g>
          </g>
        </g>
      </g>
      <path id="Trazado_3231" data-name="Trazado 3231" d="M806,107.851" fill="#e06b58"/>
      <path id="Trazado_3232" data-name="Trazado 3232" d="M882.173,332.411l.477.244-.371-.191h-.106m-3.668-2.12c.965.615,1.94,1.177,2.947,1.717l-.149-.084c-.805-.435-1.6-.891-2.375-1.368ZM869.6,322.7a41.532,41.532,0,0,0,7.792,6.88l-.4-.276a41.708,41.708,0,0,1-7.42-6.6m-.074-.085.063.074Zm70.887-40.866v0Z" transform="translate(-53.141 -145.542)" fill="#e06b58"/>
      <path id="Trazado_3233" data-name="Trazado 3233" d="M899.081,379.653c-.795.361-1.6.7-2.417,1.007-.509.2-1.06.382-1.548.562a39.936,39.936,0,0,0,3.965-1.568m-39.222-2.481c.774.477,1.569.933,2.374,1.368l-1.06-.594-1.3-.774M846.724,364.3a40.927,40.927,0,0,0,3.562,4.738l.064.063v.063l.063.074a41.674,41.674,0,0,0,7.421,6.6c-.53-.371-1.06-.753-1.559-1.156a36.962,36.962,0,0,1-4.357-3.891c-.392-.382-.763-.774-1.124-1.177a42.185,42.185,0,0,1-4.124-5.364m76.156-16.833v.138a.7.7,0,0,0,0-.138m0-.805v0m.064-.891a1.95,1.95,0,0,1-.053.551,1.9,1.9,0,0,1,.053-.551m.116-1.452c0,.477-.074.964-.117,1.442,0-.477.085-.965.117-1.442m0-.679v0Zm0-.668v0m0-.657a2.258,2.258,0,0,1,0,.265,2.064,2.064,0,0,0,0-.265m-.2-4.876c.106,1.06.18,2.12.2,3.18,0-1.06-.1-2.12-.2-3.18" transform="translate(-34.038 -192.116)" fill="#d1d5d7"/>
      <path id="Trazado_3234" data-name="Trazado 3234" d="M884.494,363.854a7.347,7.347,0,0,0,0,.838,1.564,1.564,0,0,1,0,.445c-.095.519-.519.519-.838.805s-.084.795,0,1.06.244.275.3.54a4.937,4.937,0,0,1,0,.689c0,1,.678,1.813.71,2.8h0l.371.191a41.853,41.853,0,0,0,31.569,1.993c.519-.18,1.06-.361,1.548-.562.817-.307,1.622-.647,2.417-1.007-.795.361-1.6.7-2.417,1.007l-.233-.149a1.8,1.8,0,0,0-.891-.18h-2.067a10.51,10.51,0,0,1-2.3-.18,4.581,4.581,0,0,0-1.06-.1h-2.014a7.415,7.415,0,0,1-2.12-.594,3.477,3.477,0,0,0-1.166-.159h-.519a1.908,1.908,0,0,1-1.42-.572,4.609,4.609,0,0,0-1.061-.626,4.846,4.846,0,0,0-1.484-.361,1.43,1.43,0,0,1-1.272-.636c.074-.191.668-.159.869-.233.477-.149.975-.307,1.473-.435a3.064,3.064,0,0,0,1.06-.276,7.563,7.563,0,0,1,1.251-.509,11.178,11.178,0,0,0,1.706-.869c.371-.244.265-.318,0-.615a2.252,2.252,0,0,1-.445-1.06l-1.548.3a.436.436,0,0,1,.138.276c0,.191-.328.456-.466.583a3.035,3.035,0,0,0-.361.382c-.106.212-.063.233-.286.361a.944.944,0,0,1-.519.128,4.064,4.064,0,0,1-1.06-.223,2.817,2.817,0,0,0-.891-.117h-.519a1.857,1.857,0,0,0-.668.159,4.732,4.732,0,0,1-.6.328,2.4,2.4,0,0,1-.5,0h-1.262a1.291,1.291,0,0,1-.286,0,4.246,4.246,0,0,1-.869-.3,13.423,13.423,0,0,0-1.442-.18,8.1,8.1,0,0,0-1.23-.223,6.05,6.05,0,0,1-2.014-1.06,41.467,41.467,0,0,1-7.823-1.866m-11.67-1.992h-.159c.361.4.731.795,1.124,1.177a37,37,0,0,0,4.336,3.9c.509.4,1.06.784,1.558,1.155l.4.275c.361.254.742.5,1.06.742l.424.265,1.3.774,1.06.594.149.084-1.219-.678a4.117,4.117,0,0,0-.149-.721c-.128-.371-.275-.392-.636-.466a8.7,8.7,0,0,1-1.707-.424,2.661,2.661,0,0,1-1.156-1.06c-.2-.35-.286-.615-.7-.615h-.456a36.944,36.944,0,0,1-4.357-3.891c-.106-.2-.149-.435-.254-.657a.963.963,0,0,0-.71-.53m67.091-33.741a42.234,42.234,0,0,1-.742,5.078,1.3,1.3,0,0,1,.392.5,3.494,3.494,0,0,1,0,1,1.558,1.558,0,0,0,.233.414,3.175,3.175,0,0,1,.361.922,7.969,7.969,0,0,1,.159,1.484,18.621,18.621,0,0,1,0,2.427,9.917,9.917,0,0,1-.9,2.417,2.781,2.781,0,0,1-.541.752c-.18.244-.233.562-.435.827s-.562.509-.817.805c-.392.488-.795.922-1.219,1.367a4.9,4.9,0,0,0-.721,1.06,3.8,3.8,0,0,1-.626,1.155c-.1.074-.233.138-.318.212a1.813,1.813,0,0,0-.307.742,4.911,4.911,0,0,1-.466,1.675,3.542,3.542,0,0,0-.6,1.06c-.085.318-.106.636-.223.954-.233.615-.265.986.361,1.357a3.286,3.286,0,0,0,.753.361,1.967,1.967,0,0,1,.933.149A2.493,2.493,0,0,1,935.1,356a10.045,10.045,0,0,0-.233,1.124,3.29,3.29,0,0,0,.307,1.06,1.829,1.829,0,0,0,.18.6,2.275,2.275,0,0,0,.721.7,41.449,41.449,0,0,0,8.353-18.8v-2.3a1.943,1.943,0,0,1,.053-.551c0-.477.085-.965.117-1.442v-1.813a2.133,2.133,0,0,0,0-.265v-1.665c0-1.06-.1-2.12-.2-3.18a.458.458,0,0,1-.244.074c-.138,0-.244-.074-.35-.254a7.18,7.18,0,0,0-.382-.647,1.346,1.346,0,0,0-1.283-.53h-.212a.385.385,0,0,0-.159,0c-.17.053-.233.191-.414.223a3.894,3.894,0,0,1-.774.074,4.946,4.946,0,0,1-.679,0,1.059,1.059,0,0,1-.657-.466" transform="translate(-55.589 -184.12)" fill="#d1d5d7"/>
      <g id="Grupo_11006" data-name="Grupo 11006" transform="translate(809.039 124.675)">
        <path id="Trazado_3235" data-name="Trazado 3235" d="M865.175,391.961a42.056,42.056,0,0,1-12.848.191,6.062,6.062,0,0,0,2.014,1.06,8.083,8.083,0,0,1,1.23.223,13.332,13.332,0,0,1,1.442.18,4.2,4.2,0,0,0,.869.3,1.288,1.288,0,0,0,.286,0h1.262a2.4,2.4,0,0,0,.5,0,4.8,4.8,0,0,0,.6-.328,1.876,1.876,0,0,1,.668-.159h.519a2.821,2.821,0,0,1,.891.117,4.058,4.058,0,0,0,1.06.223.942.942,0,0,0,.519-.127c.223-.128.18-.149.286-.361a3.033,3.033,0,0,1,.361-.382c.138-.127.456-.392.466-.583a.431.431,0,0,0-.138-.275M824.637,375.7a41.057,41.057,0,0,0,3.647,7.049,42.138,42.138,0,0,0,4.124,5.364h.18a.966.966,0,0,1,.71.53c.106.223.149.456.254.657a36.984,36.984,0,0,0,4.336,3.88h.456c.414,0,.5.265.7.615a2.662,2.662,0,0,0,1.156,1.06,8.743,8.743,0,0,0,1.706.424c.361.074.509.1.636.466a4.185,4.185,0,0,1,.149.721l1.219.678.721.361h.106c0-.986-.678-1.8-.71-2.8a4.9,4.9,0,0,0,0-.689c-.053-.265-.2-.318-.3-.54s-.265-.848,0-1.06.742-.286.838-.805a1.572,1.572,0,0,0,0-.445,7.237,7.237,0,0,1,0-.838,41.741,41.741,0,0,1-19.93-14.63m74.28-16.262a41.778,41.778,0,0,1-32.194,32.237,2.252,2.252,0,0,0,.445,1.06c.254.3.361.371,0,.615a11.276,11.276,0,0,1-1.707.869,7.563,7.563,0,0,0-1.251.509,3.059,3.059,0,0,1-1.06.275c-.5.128-1,.286-1.473.435-.2.074-.795,0-.87.233a1.432,1.432,0,0,0,1.272.636,4.824,4.824,0,0,1,1.484.361,4.631,4.631,0,0,1,1.06.626,1.907,1.907,0,0,0,1.42.572h.466a3.467,3.467,0,0,1,1.166.159,7.433,7.433,0,0,0,2.12.594h2.014a4.615,4.615,0,0,1,1.06.1,10.525,10.525,0,0,0,2.3.18h2.067a1.792,1.792,0,0,1,.891.18l.233.149c.816-.307,1.622-.647,2.417-1.007a41.679,41.679,0,0,0,15.308-12.265,2.276,2.276,0,0,1-.721-.7,1.825,1.825,0,0,1-.18-.6,3.282,3.282,0,0,1-.307-1.06,10.045,10.045,0,0,1,.254-1.166c0-.361.085-1.2-.244-1.441s-.689-.1-.933-.149a3.25,3.25,0,0,1-.753-.361c-.626-.371-.594-.742-.361-1.357.117-.318.138-.636.223-.954a3.543,3.543,0,0,1,.6-1.06,4.91,4.91,0,0,0,.541-1.569,1.81,1.81,0,0,1,.307-.742c.084-.074.223-.138.318-.212a3.82,3.82,0,0,0,.626-1.155,4.9,4.9,0,0,1,.721-1.06c.424-.445.827-.88,1.219-1.368.254-.3.583-.519.816-.805s.254-.583.435-.827a2.777,2.777,0,0,0,.54-.753,9.926,9.926,0,0,0,.9-2.417,18.621,18.621,0,0,0,0-2.427,7.9,7.9,0,0,0-.159-1.484,3.181,3.181,0,0,0-.361-.922,1.558,1.558,0,0,1-.233-.414,3.922,3.922,0,0,0,0-1,1.306,1.306,0,0,0-.392-.5" transform="translate(-824.637 -335.237)" fill="#4994c9"/>
        <path id="Trazado_3236" data-name="Trazado 3236" d="M1266.96,211.023a41.431,41.431,0,0,1,3.032,15.625,29.437,29.437,0,0,1-.138,3.5,1.06,1.06,0,0,0,.658.466,4.9,4.9,0,0,0,.678,0,3.925,3.925,0,0,0,.774-.074c.18,0,.244-.17.414-.223a.384.384,0,0,1,.159,0h.212a1.347,1.347,0,0,1,1.283.53c.149.2.244.424.382.647s.212.254.35.254a.456.456,0,0,0,.244-.074,40.892,40.892,0,0,0-1.929-9.021v-.117a41.991,41.991,0,0,0-5.481-10.728l-.562-.763" transform="translate(-1194.832 -211.023)" fill="#4994c9"/>
      </g>
    </g>
  </g>
</svg>
