<svg xmlns="http://www.w3.org/2000/svg" xmlns:xlink="http://www.w3.org/1999/xlink" width="234.344" height="363.722" viewBox="0 0 234.344 363.722">
  <defs>
    <clipPath id="clip-path">
      <path id="SVGID" d="M-1754.455,2330.609c.546-.361.889-.871,1.408-1.268,1.039-.783.528.607.9.906.616.529.511-.14,1.18-.026a16.5,16.5,0,0,1,2.1.783c.431.229.344.766.4,1.206.263,2.456,1.109-.3,1.513-.21,1.109.167.537,2.808,1.892,1.97,1.012-.554,1.505-.114,2.561-.281.44-.062.986.07,1.3-.458.211-.325.124-.881.607-.995.378-.07.985.177,1.32.07.783-.351.2-.518.589-1.021.371-.51.089-.906.881-.281.563.44.836-.3,1.391-.3.669.026.669.836,1.073,1.188.625.52,1.629.643,2.271,1.242a7.008,7.008,0,0,1,1.831,2.5c.229.907.757.695,1.179.386.036-.016-.458-1.522.4-.659.5.554.845.414,1.329.713.387.255.316.766.88.828.652.1,2.342-1.127,2.165.281-.053.326-1.143.255-.845.95.211.441.933-.053,1.215-.167.854-.343.854.281,1.2.793a11.392,11.392,0,0,0,.871,1.107c.185.212.8,1,1.074,1.039.344.071.775-.968,1.048-.343.458,1.056-.423,2.077-.907,2.984-1.048,1.945-2,3.952-3.16,5.827-1.4,2.287-2.517,4.858-3.758,7.216a37.869,37.869,0,0,0-3.177,7.12c-.37,1.312.351,1.523,1.549,2.06a2.884,2.884,0,0,0,1.4.484c.809-.088,1.311-.995,2.015-1.267,2.051-.951,4.136,2.323,4.823,4a5.766,5.766,0,0,0,1.417,2.289c.836.827,2.394,2.042,2.631,3.186,1.048-2.218,1.021-5.307,1.32-7.7.317-2.376.625-4.735.933-7.112,1.205-9.189,2.482-18.351,3.731-27.478.651-4.885,1.32-9.717,2-14.567.185-1.347-.026-2.967.589-4.216a7.1,7.1,0,0,0,1-3.863c-.009-1.752-.775-2.9-.96-4.48-.149-1.32-.624-1.443-1.346-2.342a25.324,25.324,0,0,1-1.3-2.658,2.946,2.946,0,0,1-.634-2.534c.413-1.725.432-4.26-1.531-5.1a4.278,4.278,0,0,1-2.236-1.628,9.946,9.946,0,0,0-1.214-1.408c-.353-.291-.916-.159-1.215-.431a16.436,16.436,0,0,1-2.553-3.24c-.466-.871-.1-2.552-.088-3.529.053-4.242-.114-8.6.264-12.833a8.9,8.9,0,0,0,2.166,0,15.287,15.287,0,0,0,2.852-.563c.986-.317,1.417-1.373,2.429-1.373.476,0,.476.607,1.126.378.432-.15.256-.854.88-.942,1.408-.149,1.443-1.188,2.694-.035.333.316.457.827.9,1.038.572.282.6-.176,1.074-.044a4.905,4.905,0,0,0,.511.114c.167.036-.176.529.211.546.686.1,1-.159,1.515-.194,1.548-.158,1.214-.176.73-1.435-.273-.747-.133-.378-.115-1.063.018-.379-.053-1.145-.018-1.5.089-.528.494-.791.309-1.275-.133-.326-.8-.344-1.013-.66-.167-.246.263-.555.176-.792-.079-.264-.335-.194-.423-.441a3.9,3.9,0,0,0-.492-.933c-.317-.4-1.356-1.462-1.937-1.426-.476.017-.668.677-.995.748-.748.2-.344-.149-.836-.246a23.064,23.064,0,0,0-2.649-.361,4.567,4.567,0,0,0-1.241-.088,5.944,5.944,0,0,1-1.338.176c-.316-.088-.176-.74-.95-.7-.476.009-.713.651-.986.668-.669.035-.616.071-.608-.73,0-1.541.009-3.071.036-4.612.009-2.913.035-5.844.062-8.757,1.161.176,2.13-.511,3.177-.66.995-.159,1.893-.8,2.8-.784a12,12,0,0,1,2.6.713,11.231,11.231,0,0,0,3.265.344c6.786.122,12.63.6,19.372-.072-.466-.308,1.056-.475.7-.827-.123-.123-.6.053-.669-.053,0,0-.2-.624-.133-.571.114.079-.123-.608-.1-.554-.053-.106-.643.14-.686-.142-.071-.378.387-.571.555-.968a12.815,12.815,0,0,1,.959-2.552,7.044,7.044,0,0,1,3.7,5.052c.264,1.936,3.749-.441,4.709-1.707,1.373-1.8,2.227-3.636,4.023-5.08,1.83-1.434,3.643-2.2,4.524.4,1.214,3.607,3.459,6.107,4.1,9.98a27.972,27.972,0,0,1,.176,6.24c-.035.889-.457,2.6.476,2.878,0,0,4.824.819,3.283-3.187-.291-.809-.264-1.021-.51-1.725-.431-1.232-.739-2.72-1.135-4.084-.5-1.813-.6-3.644-1.25-5.484-.352-1.048-1.32-2.174-1.549-3.125-.131-.554.369-1.161.388-1.831,0-1.109-.423-.9-.845-1.567-.44-.722-1.233-2.323-1.038-3.177.087-.431.643-.59.739-1.047.246-1.295-.933-1.62-1.725-2.165a11.561,11.561,0,0,1-2.2-2.465,15.928,15.928,0,0,1-2.077-2.518c-.4-.722-.9-.131-1.4-.545-.369-.335-.2-1.012-.361-1.427-.563-1.575-1.214-1.055-2.534-1.566-3.548-1.329.563-3.917.563-3.917,1.558-1.646,3.072-3.723,4.859-5.061.387-.316,1.056-.386,1.3-.571.281-.265.158-.765.518-1.03.73-.458,1.629-1.778,1.276-2.71-.334-.836-1.276-.7-1.778-1.462a8.836,8.836,0,0,1-.713-2.746,5.229,5.229,0,0,0-1.417-2.412c-.538-.256-1.039.317-1.585-.053s-.606-.827-.792-1.417a10.775,10.775,0,0,1-.968-4.463c.123-1.294-1.338-2.737-1.8-3.864-.863-2.1.844-4.2-.317-6.275-.6-1.109-.951-1-.722-2.377.176-.977.317-1.962.555-2.957a10.538,10.538,0,0,0,.308-3.538c-.071-1.109.423-1.936.493-3.063a4.668,4.668,0,0,0,0-1.215c-.105-.511-.422-.889-.405-1.443a6.449,6.449,0,0,0-.123-2.781c-.888-2.957,4.04-3.327,4.445-5.668.141-.81-.484-1.918-.467-2.869a6.2,6.2,0,0,1,1.285-3.661c.431-.546,1.022-1.048,1.47-1.55.44-.475,1.54-1.126,1.786-1.627,0,0-.264-5.4-2.323-6.171a.688.688,0,0,1-.106-.07,9.955,9.955,0,0,0-2.262-.6c-1.945-.4-2.948-.273-4.374.836-.6.448-1.057,1.012-1.963.986-.871-.044-1.927-.538-2.79-.273-.757.229-1.461.545-2.218.773a4.244,4.244,0,0,1-2.367-.026,6.121,6.121,0,0,0-2.808.431c-.933.273-2.059.933-3.019.378-1.347-.784-3.037-.66-4.533-.845-.739-.106-1.637-.766-2.394-.555-1.628.413-2.569,3.784-4.453,2.359-.344-.246-.308-.959-.775-1-.616-.07-1.637.827-2,.492-1.875-1.557-3.336-4.788-4.647-6.777-1.417-2.078-2.808-4.2-4.225-6.3-.907-1.355-2.694-5.809-4.709-5.458-1.822.318-2.341.934-3.926.036-1.135-.66-2.13-.818-3.09-1.655-.616-.555-.176-.414-.976-.616a19.825,19.825,0,0,0-2.051-.493c-.713-.071-3.6.229-3.846,1.039-.211.634-1.5,1.17-2.086,1.355a11.944,11.944,0,0,1-2.632.334c-.74.089-.669.221-1.479-.123-.475-.211-1-.951-1.338-.986-.863-.087-1.813.106-2.684.088-.871-.053-1.778-.281-2.693-.281-.3,0-.432-.432-.731-.432-.369.01-.616.2-.889.221a9.152,9.152,0,0,0-1.813.554c-1.417.5-1.7.73-3.265.344-2.429-.564-3.82-2.4-4.278-4.921-.211-1.144.422-2.156-.37-3-.668-.756-1.488-.546-2.535-.536a2.816,2.816,0,0,1-2.94-2.395c-.034-.625.45-1.013.379-1.61a11.568,11.568,0,0,1,.026-3.855c.211-1.056.951-2.412.317-3.5-.449-.739.809-2.394,1.575-2.9.766-.545.959.176,1.171-1a4.733,4.733,0,0,0-.229-1.452c-.124-.431-.413-.836-.528-1.276a20.937,20.937,0,0,1-.035-2.464c-.211-1.5-2.209-2.931-3.221-4.278a10.671,10.671,0,0,1-2.394-5.263c-.29-1.549-.528-3.107-.836-4.666-.185-1.073-.115-2.711-.74-3.194-.9-.7-1.311.414-2.059.537-1.664.3-.819-2.165-1.233-3.221-.66-1.619-.818-.528-1.946.123-1.03.6-1.989,1.488-3.151,1.637-.686.105-4.3.027-2.191-1.153,1.083-.607,1.328-1.514,1.787-2.57a10.307,10.307,0,0,1,.985-1.716,17.64,17.64,0,0,1,1.3-2.324c.757-.88,1.408-1.18,1.928-2.342.73-1.655,2.28-3.186,2.253-5.017a14.772,14.772,0,0,1,.66-4.859,33.664,33.664,0,0,0,.986-5.113,12.631,12.631,0,0,1,1.795-4.682c.687-1.232,1.611-2.289,2.227-3.574.44-.889.7-1.892,1.153-2.736.7-1.374,1.971-2.052,2.728-3.363.625-1.065.915-2.746,1.99-3.362.809-.44,2.279-.317,3.151-.458.844-.159.783-.036,1.25-.889.423-.731.818-1.47,1.233-2.2.81-1.453,1.62-2.9,2.429-4.357.818-1.435,1.426-3.451,3.124-3.793a44.071,44.071,0,0,0,5.686-1.646c1.875-.6,3.758-.977,5.307-2.13.194-.167.669-.061.731-.176a2.753,2.753,0,0,1,.308-.6c.291-.273.44-.616.827-.951,1.179-.968,3.653-1.672,3.239-3.679a17.6,17.6,0,0,0-.976-2.412,12.412,12.412,0,0,0-1-2.341,3.941,3.941,0,0,0-2.2-1.232,8.382,8.382,0,0,1-2.21-1.109c-.986-.651-1.531-.4-2.6-.519-.836-.062-2.667-.344-2.64.291.176,3.626-1.892,1.1-1.892,1.1-.687.035-1.778.59-1.919,1.4-.4,2.377-2.182,1.462-2.182,1.462-1.145.123-1.849-.194-2.077.748-.247,1,.291,2.015-.282,3.168-1.126,2.174-1.76,3.714-3.978,4.955l-2.024,1.171c-.441.106-.977-.071-1.355.044-.872.246-1.55,1.039-2.394,1.347a8.649,8.649,0,0,0-2.587.88c-1.3.906-2.236,2.217-3.556,3.054a44.3,44.3,0,0,0-6,4.735c-2.14,1.839-5.387,1.18-8.01,1.3a9.559,9.559,0,0,1-5.422-1.021c-.933-.545-.968-.827-2.148-.766-.3.009-.316.4-.563.484l-2.342,1.038a2.994,2.994,0,0,0-.8,1.875c-.141.986.519,2.095-.079,2.948-.792,1.109-.871,2.446-1.8,3.4-7.525,7.754-10.3-4.665-10.3-4.665-.238.44-.668.589-.977.968-.8.924-1.663,1.778-2.394,2.693-.221.281-.062.625-.308.9a9.273,9.273,0,0,1-2.016,1.092c-.59.351-1.083.836-1.663,1.179-.211.123-.7-.114-.828.123-.352.634-.2.571.669.783.572.132-.2,1.576-.6,1.2-.776-.765-1.629.036-2.3.414a9.181,9.181,0,0,0-2.165,2.121c-.528.607-.466.105-.59.783-.079.431.281,1,.291,1.268.061,1.382,1.188,1.365-.291.388-.59-.379-2.147,1.584-1.364,1.777.132.018.141-.4.29-.388.625.071.986.925.651,1.9-.184.546-.7.827-1.567.721,0,0-2.534,1.47.986,2.288.449.106-.616.837-.9,1.215-.423.553-.334,2.323-.432,2.992a18.592,18.592,0,0,1-1.029,2.869,9.276,9.276,0,0,1-1.065,2.747c-.264.414-.836.378-.484.809.044.053,1.18-.018,1.5.282.95.828.668,2.552.317,3.573a3.7,3.7,0,0,1-1.655,2.377c-.7.29-3.275.9-3.275.176,0-.263,1.5-.475.6-.633a5.8,5.8,0,0,0-2.051.282,11.491,11.491,0,0,0-1.69,1.232c-.467.3-1.065.369-1.488.686-.581.457-.247.792-.563,1.206-.264.308-1.109.74-1.215,1.012a12.155,12.155,0,0,1-1.144,2.958c-.9,1.268-.9,2.729-2.411,3.573-.519.3-1.408.37-1.84.687-.2.14-.079.7-.379.906a13.525,13.525,0,0,0-1.391,1.18,5.087,5.087,0,0,1-.95.835c-1.091.678-1.108.432-1.751,1.233-.555.721-.449.668-1.285,1-1.241.5-4.762.932-4.48,2.719a4.318,4.318,0,0,1,3.1,3.565,26.613,26.613,0,0,0-.2,2.772c.044.4.264.836.291,1.224.053.906-.335,1.865-.018,2.693.026-.176.053-.37.071-.519.51.748.017,2.015-.141,2.737-.281,1.161-.475,1.443-1.857,1.32-1.312-.105-1.84-.484-1.478-1.927l.589-2.438c-.933-.07-.766-.37-.739-1.03,0-.071.863-.941.07-.537-.07-.088.044-.281-.062-.343-.061.045-.167.167-.238.186-.317-.528.071-1.365-.026-1.47-.308-.37-1.285.449-1.628-.273-.466-1.012-1.241-2.923-2.218-3.608-.774-.563-1.743-.3-1.972-1.408-1.073-5.22-2.817-2.9-2.817-2.9a12.8,12.8,0,0,0-.246,1.4c-.361.933-1.2,1.32-.6,2.217.035.053.379-.255.449-.176a4.639,4.639,0,0,1,1.1,1.567c.246.783-.211,2.068.274,2.781.106.168.484.229.518.273a16.957,16.957,0,0,1,1.479,2.587c.441,1.073.334,2.394.828,3.4.369.818.9.554.308,1.055-.607.537-2.051.335-2.719,1.145a7.652,7.652,0,0,0-1.18,2.482c.062.483.845.818.7,1.328-.123.546-.818.546-1.153.828-.739.546-1.3,1.056-2.068,1.531-.968.652-1.532,2.209-2.359,1.048-.4-.519-.581-1.91-.9-2.359-.528-.73-1.408-1.786-1.857-.431s1.056,2.755.29,3.9c-.475.731-1.25.449-1.655.995a7.307,7.307,0,0,0-.6,1.83c-.211.608-.387,1.215-.59,1.787-.334,1.047-.413,1.513.378,2.279,0,0,2.605,4.295,7.27,10.421.5.677.369,1,.634,1.734.15.414.757.695.9,1a3.453,3.453,0,0,1-.229,2.394c-.071.264-.264.519-.317.784-.035.176.361.422.317.536-.106.238-.828.466-.845.52-.089.379.483.793.352,1.39a3.411,3.411,0,0,1-.37,1.338c-.643.933-.616-.071-1.522-.687.026.995-.431,2.007-.15,2.94.361,1.179.845,3.626,2.068,3.573.141-.018.062-.458.185-.476,1.5-.114,1.3,3.213,1.708,4.674a2.529,2.529,0,0,1-.423,2.6c-.246.3-.828,1.109-.995,1.232-.581.475-.774.142-1.293.177a2.8,2.8,0,0,0-2.711,1.953c-.44.942-.88.669.352.872.766.114.555-.308,1.365.52.448.492.589.051.607.87.018.466.193.149-.141.74-1.355,2.429.3,4.823.51,7.49.062.977-.053,1.98.035,3.028.053.616.124,1.25.229,1.9.07.44.308.088.369.211.281.607,1.725,1.963,1.109,2.271-.334.176-.8-1.145-1.1-.537-.237.448.907.977.062,1.382-.563.282-.264,3.837-.264,4.4-.018.687-.968,1.567-1.056,2.236a1.806,1.806,0,0,0,.9,2.165c.291.141,1.073-.281,1.338.106.537.721-1.179,1.214-1.487,1.285-.466.106-.29-.528-1.038.149-.546.476-.845.194-1.135.978a7.467,7.467,0,0,0,.124,2.394,2.575,2.575,0,0,0,.061,1.039c.141.4,1.347,1.267,1.293,1.443-1.583,6.284,4.4.176,4.4.176,1.074,4.26-12.621,24.776-12.621,24.776a2.408,2.408,0,0,1-1.364.608c.176.633.026,1.25.607,1.62a.934.934,0,0,0-.361.132c.661.678,1.382,1.558.2,2.173-.95.484-3.151.291-2.13-1.126-.466.132-.5-.642-.88-.563-.441.089.035,1.232-.353,1.18-.017,0,.036.958.036.958-1.355.8-1.135.044-1.743.079-1.108.062-.616,1.5-1.936,1.285-.634-.1-.581-.352-1.478-.546-1.568-.334-1.286.652-1.937,1.127-1.109.809-.686-.194-1.8-.625-1.284-.519-.334.572-1.135,1.153-.872.616-.344,1.17-1.7,1.285-.475.036.405-1.127,0-1.365-1.232-.748-1.1,2.826-1.69,4.041-.15.333-.96.95-.81,1.46.158.617-.036,1.3.58.933a6.473,6.473,0,0,0-.123,1.8c-.018.723-.344,1.347.123,1.5.458.122.634-1.435,1.056.053.088.281-.071.8,0,1.012.133.273.686.291.766.573.132.44-.193,3.326-.994,3.449-.722.071-.159-.581-.511-.695a6.92,6.92,0,0,0-.88-.159c-.51-.105-1.2-.2-1.646-.309a4.4,4.4,0,0,0-2.015-.229c-1.074.388-3.644,3.054-3.661,4.269-.026,1.143,1.2.853,1.927,1.082a2.909,2.909,0,0,1,1.083.581c.634.459.308.071.686.767.141.238.229.818.388,1.091a6.983,6.983,0,0,0,.977,1.381,22.824,22.824,0,0,0,2.059,2.694c.485.422,1.1.14,1.435.386.387.256.369,1.179.766,1.436a7.609,7.609,0,0,0,2.324.263c-.1,1.153.273.977.977.677,1.268-.641,1-.924,1.76.229.114.176.783.95.8,1.047.018.141-.2.608-.237.449.017.017-.229.352-.141.616.2.651,1.637,1.628,2.192,2.06,1.417,1.108,2.491,1.021,4.049,1.725.871.37.484,0,1.038.793a1.942,1.942,0,0,0,1.391.721c.836.229,2.033-1.681,2.93-.325.458.677.089,1.61.661,2.324a4.385,4.385,0,0,0,.985.677,3.1,3.1,0,0,0,1.206.625c.616.211,1.083-.308,1.347.554.308.986-.1,2.025.22,3.1.44,1.409.4,2.016,1.875,2.553.88.3,2.3.978,3.195.7.413-.123.889-.511,1.329-.458.924.105.933.986,1.655,1.32.448.195,1.038-.034,1.505.158.563.238.792.916,1.452,1.11.783.2,2.562.193,2.632-.476.158-1.2,2.526.669,2.755.713.7.194.766.071,1.435-.1,1.637-.387,1.91-.141,1.91-1.919.009-2.4.81-.307,1.716-1.46.766-.977,1.408-.176,2.42.1.361.106,1.356.15,1.593.361.344.3-.035.819.458,1.109.369.229.827-.7,1.232.071.3.563.633,1,.968,1.531a14.436,14.436,0,0,0,3.715,3.917c.9.678,1.813.589,2.9.73.326.017.334-.388.7-.317.316.088.836.695,1.1.888a10.98,10.98,0,0,0,2.42,1.611c1.03.388,3.177,1.91,3.626.335.4-1.443.862-1.108,2.015-.52.96.5,2.474,1.259,2.949,2.289.291.625.818.775,1.391.977.827.308.774-.062,1.557.044,1.488.158,1.645,1.506,1.857,2.773.176,1.03.616.017,1.021.387.282.229.106,1.25.757.9.933-.555,2.262,2.139,3.063,2.57s.845.334,1.285.88a5.315,5.315,0,0,1,.951,2.552c.264,1.25.141,1.866.941,2.967.115.149.643.888.872.95,1.338.59-1.479,1.047-.387,1.716.616.369.334,1.267.774,1.822.387.475.66.414,1.162.59,1.127.439,1.76.66,2.764.106.678-.361.387.995.537,1.232.361.634.466.369,1.012.739.246.176.282.581.572.652.2.087.475-.3.616-.23.607.37.467.211.7.713.132.246.132,1.021.343,1.479.2.343.793.4,1.145.554.687.282.537-.141.669-.686.193-.633.853.616,1.038.748a13.217,13.217,0,0,1,1.549.872,5.3,5.3,0,0,1,1.039,1.145c.369.625.009,1.232.211,1.769a8.484,8.484,0,0,0,.81,1.056,9.345,9.345,0,0,1,.933,1.461c.476.925.018.836-.333,1.576-.291.624-.669,2.641.325,2.815.889.186.52.652,1.074,1,.4.317.8.2,1.285.413.378.176.528.642,1.013.625.167,0,.132-.554.211-.554.3-.053,1.03-.281,1.2-.281.176-.027.176-.669.546-.344.211.142.246.459.466.625.519.273.713.2.678.924-.018.6.669.643.863,1.2.141.414-.159.968-.123,1.417.071,1.038.74,1.936.74,3.019,0,1.25-1.118,1.629-1.32,2.411-.246.924.643,2.5,1.593,2.36.4-.018.66,1.522.924.924.387-.88.4.07,1.03-.115.528-.2,1.074,2.1,1.848,2.174.88.071,1.663-1.064,2.254-1.2-.185.036.572.413.545.413.036.018.22-.484.4-.413.423.2,1.039,1.452,1.267.573.493-1.875.739-1,2.183-.643.827.159,1.936-.554,2.64-.264.581.264.519,1.092,1.153,1.232.581.141,1.013-.414,1.558.045.686.581.37-.713,1.408-.81.405-.044,1.25.281,1.294.07a2.64,2.64,0,0,1,.7-1.382c.915-.977,2.332.457,2.861-.211Z" transform="translate(1894.276 -2010.736)" fill="none"/>
    </clipPath>
  </defs>
  <g id="Grupo_11026" data-name="Grupo 11026" transform="translate(1894.276 -2010.736)">
    <g id="Grupo_11025" data-name="Grupo 11025" transform="translate(-1894.276 2010.736)" clip-path="url(#clip-path)">
      <g id="Grupo_11024" data-name="Grupo 11024" transform="translate(-56.77 -8.183)">
        <path id="Trazado_3277" data-name="Trazado 3277" d="M-1863.082,2556.071l-117.141-5.868,168.376,14.219Z" transform="translate(1980.223 -2185.689)" fill="#015d6a"/>
        <path id="Trazado_3278" data-name="Trazado 3278" d="M-1915.3,2003.765l142.646-1.58,55.749-3.837Z" transform="translate(1958.182 -1998.348)" fill="#09768a"/>
        <path id="Trazado_3279" data-name="Trazado 3279" d="M-1550.015,2436.833l17.831,27.537,30.7-55.976Z" transform="translate(1834.178 -2137.548)" fill="#72b4be"/>
        <path id="Trazado_3280" data-name="Trazado 3280" d="M-1545.231,2356.913l45.367,25.729,2.934-50.106Z" transform="translate(1832.554 -2111.796)" fill="#80d5dd"/>
        <path id="Trazado_3281" data-name="Trazado 3281" d="M-1518.106,2267.953l-34.984,41.3,53.492,1.355Z" transform="translate(1835.222 -2089.872)" fill="#bceeee"/>
        <path id="Trazado_3282" data-name="Trazado 3282" d="M-1553.09,2330.485l5.191,25.731,48.3-24.376Z" transform="translate(1835.222 -2111.1)" fill="#a4e5e6"/>
        <path id="Trazado_3283" data-name="Trazado 3283" d="M-1521.995,2224.9l2.934,24.376,11.511,4.062Z" transform="translate(1824.666 -2075.256)" fill="#b8eded"/>
        <path id="Trazado_3284" data-name="Trazado 3284" d="M-1546.855,2369.441l-3.16,54.168,48.527-28.439Z" transform="translate(1834.178 -2124.325)" fill="#83cbd9"/>
        <path id="Trazado_3285" data-name="Trazado 3285" d="M-1529.617,2261.8l-23.473,45.366,34.984-41.3Z" transform="translate(1835.222 -2087.784)" fill="#c9f3f2"/>
        <path id="Trazado_3286" data-name="Trazado 3286" d="M-1519.277,2015.433l-13.994,21.894,31.6-12.866Z" transform="translate(1828.494 -2004.148)" fill="#639aa4"/>
        <path id="Trazado_3287" data-name="Trazado 3287" d="M-1614.939,1998.348l16.477,17.831,51.461-6.546Z" transform="translate(1856.218 -1998.348)" fill="#6c9da5"/>
        <path id="Trazado_3288" data-name="Trazado 3288" d="M-1546.727,2048.579l-26.182,30.7,34.082,13.768Z" transform="translate(1841.95 -2015.4)" fill="#72acb0"/>
        <path id="Trazado_3289" data-name="Trazado 3289" d="M-1606.055,2277.828l34.985,29.341,23.473-45.366Z" transform="translate(1853.202 -2087.784)" fill="#caf4f3"/>
        <path id="Trazado_3290" data-name="Trazado 3290" d="M-1589.994,2021.979l37.467,15.348,13.994-21.894Z" transform="translate(1847.75 -2004.148)" fill="#6d9ea8"/>
        <path id="Trazado_3291" data-name="Trazado 3291" d="M-1597.512,2410.518l31.373,13.091,3.16-54.168Z" transform="translate(1850.302 -2124.325)" fill="#81c7d4"/>
        <path id="Trazado_3292" data-name="Trazado 3292" d="M-1554.307,2451.449l-8.351,15.574,26.182,11.963Z" transform="translate(1838.47 -2152.164)" fill="#74aeb5"/>
        <path id="Trazado_3293" data-name="Trazado 3293" d="M-1595.12,2141.4l32.5,13.317,16.252-38.822Z" transform="translate(1849.49 -2038.252)" fill="#80c6d2"/>
        <path id="Trazado_3294" data-name="Trazado 3294" d="M-1580.449,2095.05l-14.671,39.273,48.753-25.5Z" transform="translate(1849.49 -2031.176)" fill="#79b8c2"/>
        <path id="Trazado_3295" data-name="Trazado 3295" d="M-1549.371,2222l-53.266-5.643,56.2,30.019Z" transform="translate(1852.042 -2072.356)" fill="#afe9ea"/>
        <path id="Trazado_3296" data-name="Trazado 3296" d="M-1603.8,2216.356l-2.258,46.044,58.458-16.025Z" transform="translate(1853.202 -2072.356)" fill="#c3f1f0"/>
        <path id="Trazado_3297" data-name="Trazado 3297" d="M-1562.658,2475.027l7.448,46.044,18.734-34.081Z" transform="translate(1838.47 -2160.168)" fill="#70a5ad"/>
        <path id="Trazado_3298" data-name="Trazado 3298" d="M-1565.171,2174.668l-37.466,27.536,53.266,5.643Z" transform="translate(1852.042 -2058.204)" fill="#98dee4"/>
        <path id="Trazado_3299" data-name="Trazado 3299" d="M-1589.994,2025.343l11.285,46.043,26.182-30.7Z" transform="translate(1847.75 -2007.512)" fill="#6fa3ac"/>
        <path id="Trazado_3300" data-name="Trazado 3300" d="M-1604.346,2125.295l6.094,9.028,14.671-39.273Z" transform="translate(1852.622 -2031.176)" fill="#7abcc6"/>
        <path id="Trazado_3301" data-name="Trazado 3301" d="M-1654.918,2496.921l41.981,41.3,18.959-63.2Z" transform="translate(1869.79 -2160.168)" fill="#669fa8"/>
        <path id="Trazado_3302" data-name="Trazado 3302" d="M-1572.4,2475.027l-18.959,63.2,26.407-17.154Z" transform="translate(1848.214 -2160.168)" fill="#6e9fa9"/>
        <path id="Trazado_3303" data-name="Trazado 3303" d="M-1597.672,2154.507l-4.965,40.853,37.466-27.536Z" transform="translate(1852.042 -2051.36)" fill="#8cd6e3"/>
        <path id="Trazado_3304" data-name="Trazado 3304" d="M-1585.593,2353.039l-16.7,8.576,37.693,2.258Z" transform="translate(1851.926 -2118.757)" fill="#98dee4"/>
        <path id="Trazado_3305" data-name="Trazado 3305" d="M-1602.3,2366.023l3.16,43.335,34.533-41.077Z" transform="translate(1851.926 -2123.164)" fill="#8bd6e3"/>
        <path id="Trazado_3306" data-name="Trazado 3306" d="M-1561.21,2330.485l-15.8,14.9,20.99,10.834Z" transform="translate(1843.342 -2111.1)" fill="#9ee3e4"/>
        <path id="Trazado_3307" data-name="Trazado 3307" d="M-1597.512,2431.63l23.022,28.665,8.351-15.574Z" transform="translate(1850.302 -2145.436)" fill="#78b6bf"/>
        <path id="Trazado_3308" data-name="Trazado 3308" d="M-1606.055,2286.064l19.186,44.239,15.8-14.9Z" transform="translate(1853.202 -2096.02)" fill="#baeeed"/>
        <path id="Trazado_3309" data-name="Trazado 3309" d="M-1612.783,2286.064l-13.091,21.668,32.277,22.571Z" transform="translate(1859.93 -2096.02)" fill="#b6ebec"/>
        <path id="Trazado_3310" data-name="Trazado 3310" d="M-1609.83,2025.343l-38.6,27.535,49.881,18.508Z" transform="translate(1867.586 -2007.512)" fill="#66a2a9"/>
        <path id="Trazado_3311" data-name="Trazado 3311" d="M-1605.632,2431.63l-15.8,5.417,38.821,23.248Z" transform="translate(1858.422 -2145.436)" fill="#76b6c0"/>
        <path id="Trazado_3312" data-name="Trazado 3312" d="M-1632.8,2439.831l-22.119,45.142,60.94-21.894Z" transform="translate(1869.79 -2148.22)" fill="#63a9af"/>
        <path id="Trazado_3313" data-name="Trazado 3313" d="M-1625.874,2318.868l15.574,31.147,16.7-8.576Z" transform="translate(1859.93 -2107.156)" fill="#9be2e4"/>
        <path id="Trazado_3314" data-name="Trazado 3314" d="M-1648.426,2067.03l29.116,48.753,20.765-30.245Z" transform="translate(1867.586 -2021.664)" fill="#67acb4"/>
        <path id="Trazado_3315" data-name="Trazado 3315" d="M-1646.034,2236.669l26.407,25.731,2.258-46.044Z" transform="translate(1866.774 -2072.356)" fill="#abe8e8"/>
        <path id="Trazado_3316" data-name="Trazado 3316" d="M-1915.3,2005.737l83.962,16.7,58.684-18.282Z" transform="translate(1958.182 -2000.32)" fill="#026576"/>
        <path id="Trazado_3317" data-name="Trazado 3317" d="M-1648.89,2067.03l-.9,48.753h30.019Z" transform="translate(1868.05 -2021.664)" fill="#56aab5"/>
        <path id="Trazado_3318" data-name="Trazado 3318" d="M-1618.536,2366.023l-31.6,6.545,34.758,36.79Z" transform="translate(1868.166 -2123.164)" fill="#75cedd"/>
        <path id="Trazado_3319" data-name="Trazado 3319" d="M-1650.134,2375.932l18.959,42.207,15.8-5.417Z" transform="translate(1868.166 -2126.528)" fill="#67bfce"/>
        <path id="Trazado_3320" data-name="Trazado 3320" d="M-1649.793,2168.275l31.148,27.085,4.965-40.853Z" transform="translate(1868.05 -2051.36)" fill="#78cfdd"/>
        <path id="Trazado_3321" data-name="Trazado 3321" d="M-1654.918,2508.173v42.884l41.981-1.58Z" transform="translate(1869.79 -2171.421)" fill="#4d939d"/>
        <path id="Trazado_3322" data-name="Trazado 3322" d="M-1626.307,1998.348l-22.119,45.366,38.6-27.535Z" transform="translate(1867.586 -1998.348)" fill="#5a97a2"/>
        <path id="Trazado_3323" data-name="Trazado 3323" d="M-1619.774,2140.839l-30.019,22.8,36.113-13.768Z" transform="translate(1868.05 -2046.72)" fill="#6ec3d2"/>
        <path id="Trazado_3324" data-name="Trazado 3324" d="M-1649.793,2140.839v22.8l30.019-22.8Z" transform="translate(1868.05 -2046.72)" fill="#5dbccb"/>
        <path id="Trazado_3325" data-name="Trazado 3325" d="M-1649.793,2175.351l2.483,47.4,28.665-20.313Z" transform="translate(1868.05 -2058.436)" fill="#7bd5db"/>
        <path id="Trazado_3326" data-name="Trazado 3326" d="M-1634.11,2318.868l-16.024,37.692,31.6-6.545Z" transform="translate(1868.166 -2107.156)" fill="#82d9dc"/>
        <path id="Trazado_3327" data-name="Trazado 3327" d="M-1655.943,2300.735l19.861,7,13.091-21.668Z" transform="translate(1870.138 -2096.02)" fill="#b0eaea"/>
        <path id="Trazado_3328" data-name="Trazado 3328" d="M-1649.4,2247.109l-6.545,40.4,32.952-14.671Z" transform="translate(1870.138 -2082.796)" fill="#abe8e9"/>
        <path id="Trazado_3329" data-name="Trazado 3329" d="M-1659.537,2175.351l-18.959,26.633,21.442,20.765Z" transform="translate(1877.794 -2058.436)" fill="#68cfd6"/>
        <path id="Trazado_3330" data-name="Trazado 3330" d="M-1670.3,2320.673l13.317,35.887,16.024-37.692Z" transform="translate(1875.01 -2107.156)" fill="#80d8db"/>
        <path id="Trazado_3331" data-name="Trazado 3331" d="M-1694.557,2468.27l26.183,16.7,22.119-45.142Z" transform="translate(1883.247 -2148.22)" fill="#3d9ca5"/>
        <path id="Trazado_3332" data-name="Trazado 3332" d="M-1659.762,2375.932l-18.734,5.417,37.693,36.79Z" transform="translate(1877.794 -2126.528)" fill="#52c1d2"/>
        <path id="Trazado_3333" data-name="Trazado 3333" d="M-1699.34,2002.185l33.63,41.529,22.119-45.366Z" transform="translate(1884.87 -1998.348)" fill="#3b8e99"/>
        <path id="Trazado_3334" data-name="Trazado 3334" d="M-1678.5,2069.288l18.959,46.5.9-48.753Z" transform="translate(1877.794 -2021.664)" fill="#3c9ca6"/>
        <path id="Trazado_3335" data-name="Trazado 3335" d="M-1695.582,2442.314l.677,25.956,48.3-28.439Z" transform="translate(1883.595 -2148.22)" fill="#39a1af"/>
        <path id="Trazado_3336" data-name="Trazado 3336" d="M-1684.3,2384.133l-11.286,39.273,48.979-2.483Z" transform="translate(1883.595 -2129.312)" fill="#43b1c2"/>
        <path id="Trazado_3337" data-name="Trazado 3337" d="M-1660.815,2308.275l-9.48,8.8,29.341-1.805Z" transform="translate(1875.01 -2103.56)" fill="#97e0e2"/>
        <path id="Trazado_3338" data-name="Trazado 3338" d="M-1942.3,2540.293l-37.919,6.546,117.141,5.868Z" transform="translate(1980.223 -2182.325)" fill="#005262"/>
        <path id="Trazado_3339" data-name="Trazado 3339" d="M-1788.184,2022.439l20.765-2.032,37.919-16.25Z" transform="translate(1915.031 -2000.32)" fill="#09758b"/>
        <path id="Trazado_3340" data-name="Trazado 3340" d="M-1708.225,2530.517l35.211,20.54v-42.884Z" transform="translate(1887.887 -2171.421)" fill="#328a99"/>
        <path id="Trazado_3341" data-name="Trazado 3341" d="M-1673.079,2321.6l-5.417,41.3,18.734-5.417Z" transform="translate(1877.794 -2108.084)" fill="#61cbd5"/>
        <path id="Trazado_3342" data-name="Trazado 3342" d="M-1687.892,2070.448l-18.283,27.761,37.242,18.734Z" transform="translate(1887.191 -2022.824)" fill="#349dac"/>
        <path id="Trazado_3343" data-name="Trazado 3343" d="M-1662.669,2140.839l-25.054,32.05,25.054-9.254Z" transform="translate(1880.927 -2046.72)" fill="#49bed1"/>
        <path id="Trazado_3344" data-name="Trazado 3344" d="M-1687.723,2184.6l6.095,17.379,18.959-26.633Z" transform="translate(1880.927 -2058.436)" fill="#55c5d4"/>
        <path id="Trazado_3345" data-name="Trazado 3345" d="M-1699.34,2004.157l13.768,43.787,19.862-2.258Z" transform="translate(1884.87 -2000.32)" fill="#318c9c"/>
        <path id="Trazado_3346" data-name="Trazado 3346" d="M-1692.164,2283.448l23.925,4.063,6.545-40.4Z" transform="translate(1882.434 -2082.796)" fill="#9ae1e4"/>
        <path id="Trazado_3347" data-name="Trazado 3347" d="M-1683.136,2215.672l-9.028,57.1,30.47-36.339Z" transform="translate(1882.434 -2072.124)" fill="#91dce1"/>
        <path id="Trazado_3348" data-name="Trazado 3348" d="M-1706.175,2112.477l12.188,50.784,25.054-32.05Z" transform="translate(1887.191 -2037.092)" fill="#39aec2"/>
        <path id="Trazado_3349" data-name="Trazado 3349" d="M-1714.025,2542l-11.285,19.637,46.5.9Z" transform="translate(1893.687 -2182.905)" fill="#248395"/>
        <path id="Trazado_3350" data-name="Trazado 3350" d="M-1699.2,2482.886l-9.028,39.047,35.211-22.344Z" transform="translate(1887.887 -2162.836)" fill="#2c8d9d"/>
        <path id="Trazado_3351" data-name="Trazado 3351" d="M-1692.164,2302.124l14.445,12.865,9.48-8.8Z" transform="translate(1882.434 -2101.472)" fill="#93dde2"/>
        <path id="Trazado_3352" data-name="Trazado 3352" d="M-1743.248,2208.5l-18.283,51.235,45.819,10.608Z" transform="translate(1905.983 -2069.688)" fill="#85d0de"/>
        <path id="Trazado_3353" data-name="Trazado 3353" d="M-1733.852,2208.5l27.536,61.843,9.028-57.1Z" transform="translate(1896.586 -2069.688)" fill="#77d0dd"/>
        <path id="Trazado_3354" data-name="Trazado 3354" d="M-1735.22,2356.134l37.468,6.771,5.417-41.3Z" transform="translate(1897.051 -2108.084)" fill="#54c5d4"/>
        <path id="Trazado_3355" data-name="Trazado 3355" d="M-1706.78,2302.124l-28.44,47.4,42.885-34.533Z" transform="translate(1897.051 -2101.472)" fill="#72cedb"/>
        <path id="Trazado_3356" data-name="Trazado 3356" d="M-1753.33,2125.343l3.386,31.825,27.761-44.69Z" transform="translate(1903.199 -2037.092)" fill="#159cb6"/>
        <path id="Trazado_3357" data-name="Trazado 3357" d="M-1742.644,2373.882l-14.445,31.373,40.627,14.671Z" transform="translate(1904.475 -2125.832)" fill="#1aa6c2"/>
        <path id="Trazado_3358" data-name="Trazado 3358" d="M-1752.988,2319.729l11.736,29.793,28.439-47.4Z" transform="translate(1903.083 -2101.472)" fill="#64c6d6"/>
        <path id="Trazado_3359" data-name="Trazado 3359" d="M-1720.443,2112.477l-27.761,44.69,39.949,6.094Z" transform="translate(1901.458 -2037.092)" fill="#24aeca"/>
        <path id="Trazado_3360" data-name="Trazado 3360" d="M-1735.22,2373.882l26.182,46.044,11.286-39.273Z" transform="translate(1897.051 -2125.832)" fill="#2fb4cf"/>
        <path id="Trazado_3361" data-name="Trazado 3361" d="M-1703.383,2189.361l-30.469,12.64,36.564,4.739Z" transform="translate(1896.586 -2063.192)" fill="#4ec2d4"/>
        <path id="Trazado_3362" data-name="Trazado 3362" d="M-1761.531,2080.83l36.564,17.379,18.283-27.761Z" transform="translate(1905.983 -2022.824)" fill="#178fa2"/>
        <path id="Trazado_3363" data-name="Trazado 3363" d="M-1758.371,2028.759l-3.16,37.919,54.847-10.382Z" transform="translate(1905.983 -2008.672)" fill="#0c8297"/>
        <path id="Trazado_3364" data-name="Trazado 3364" d="M-1718.828,2004.157l-37.919,16.25,51.687,27.537Z" transform="translate(1904.359 -2000.32)" fill="#188299"/>
        <path id="Trazado_3365" data-name="Trazado 3365" d="M-1761.873,2500.717l35.436,21.216,9.028-39.047Z" transform="translate(1906.099 -2162.836)" fill="#0e859b"/>
        <path id="Trazado_3366" data-name="Trazado 3366" d="M-1748.2,2180.136l9.48,18.733,30.469-12.64Z" transform="translate(1901.458 -2060.061)" fill="#38b8d1"/>
        <path id="Trazado_3367" data-name="Trazado 3367" d="M-1716.462,2436.05l-40.627-14.671,41.3,40.627Z" transform="translate(1904.475 -2141.956)" fill="#1999b0"/>
        <path id="Trazado_3368" data-name="Trazado 3368" d="M-1758.713,2421.379l-3.16,58.458,44.464-17.831Z" transform="translate(1906.099 -2141.956)" fill="#0d8a9e"/>
        <path id="Trazado_3369" data-name="Trazado 3369" d="M-1761.531,2286.064l5.643,28.213,40.176-17.6Z" transform="translate(1905.983 -2096.02)" fill="#84cddb"/>
        <path id="Trazado_3370" data-name="Trazado 3370" d="M-1775.541,2251.38l9.254,8.352L-1748,2208.5Z" transform="translate(1910.739 -2069.688)" fill="#7ac3d0"/>
        <path id="Trazado_3371" data-name="Trazado 3371" d="M-1761.531,2086.166l5.417,30.245,31.147-12.866Z" transform="translate(1905.983 -2028.16)" fill="#0f8da3"/>
        <path id="Trazado_3372" data-name="Trazado 3372" d="M-1761.873,2509.881l24.151,40.853,11.285-19.637Z" transform="translate(1906.099 -2172.001)" fill="#0b7c92"/>
        <path id="Trazado_3373" data-name="Trazado 3373" d="M-1887.154,2537.56l-35.662,1.805,79.223,12.414Z" transform="translate(1960.735 -2181.397)" fill="#005866"/>
        <path id="Trazado_3374" data-name="Trazado 3374" d="M-1785.792,2477.806l15.8,2.031,3.16-58.458Z" transform="translate(1914.219 -2141.956)" fill="#077c8e"/>
        <path id="Trazado_3375" data-name="Trazado 3375" d="M-1791.6,2229.94l10.608,21.441,27.537-42.883Z" transform="translate(1916.191 -2069.688)" fill="#66b9c6"/>
        <path id="Trazado_3376" data-name="Trazado 3376" d="M-1775.793,2509.881l-27.084,32.5,51.235,8.351Z" transform="translate(1920.019 -2172.001)" fill="#067085"/>
        <path id="Trazado_3377" data-name="Trazado 3377" d="M-1823.721,2456.364l25.053,21.442,18.959-56.427Z" transform="translate(1927.094 -2141.956)" fill="#05798b"/>
        <path id="Trazado_3378" data-name="Trazado 3378" d="M-1798.093,2367.39l27.084,35.661,14.445-31.373Z" transform="translate(1918.395 -2123.628)" fill="#26a6be"/>
        <path id="Trazado_3379" data-name="Trazado 3379" d="M-1761.34,2328.777l-16.251,5.191,27.987,24.6Z" transform="translate(1911.435 -2110.52)" fill="#50b7c5"/>
        <path id="Trazado_3380" data-name="Trazado 3380" d="M-1780.541,2194.828l-11.06,30.471,38.145-21.443Z" transform="translate(1916.191 -2065.048)" fill="#44afbf"/>
        <path id="Trazado_3381" data-name="Trazado 3381" d="M-1757.252,2180.136l-17.6,9.7,27.085,9.029Z" transform="translate(1910.506 -2060.061)" fill="#36aec4"/>
        <path id="Trazado_3382" data-name="Trazado 3382" d="M-1784.551,2336.636l-13.542,20.314,41.529,4.288Z" transform="translate(1918.395 -2113.188)" fill="#40acbd"/>
        <path id="Trazado_3383" data-name="Trazado 3383" d="M-1915.3,2006.549l38.595,24.15,45.367-7.448Z" transform="translate(1958.182 -2001.132)" fill="#005a68"/>
        <path id="Trazado_3384" data-name="Trazado 3384" d="M-1791.592,2506.806l-11.285,34.533,27.084-32.5Z" transform="translate(1920.019 -2170.957)" fill="#046b7f"/>
        <path id="Trazado_3385" data-name="Trazado 3385" d="M-1793.056,2031.835l-9.479,17.379,27.084,18.508Z" transform="translate(1919.903 -2009.716)" fill="#046f81"/>
        <path id="Trazado_3386" data-name="Trazado 3386" d="M-1819.207,2422.959l-4.514,33.4,44.012-34.985Z" transform="translate(1927.094 -2141.956)" fill="#088094"/>
        <path id="Trazado_3387" data-name="Trazado 3387" d="M-1788.184,2030.791l17.6,35.887,3.16-37.919Z" transform="translate(1915.031 -2008.672)" fill="#067286"/>
        <path id="Trazado_3388" data-name="Trazado 3388" d="M-1772.087,2086.166l-20.538,36.79,25.955-6.545Z" transform="translate(1916.538 -2028.16)" fill="#0b869b"/>
        <path id="Trazado_3389" data-name="Trazado 3389" d="M-1766.983,2286.064l-10.608,33.4,16.251-5.191Z" transform="translate(1911.435 -2096.02)" fill="#73bfcb"/>
        <path id="Trazado_3390" data-name="Trazado 3390" d="M-1766.67,2131.955l-25.955,6.545,29.341,25.28Z" transform="translate(1916.538 -2043.704)" fill="#1397b0"/>
        <path id="Trazado_3391" data-name="Trazado 3391" d="M-1792.625,2141.864l11.736,34.984,17.6-9.7Z" transform="translate(1916.538 -2047.068)" fill="#17a0ba"/>
        <path id="Trazado_3392" data-name="Trazado 3392" d="M-1804.473,2367.39l-12.414,37.241,39.5-1.58Z" transform="translate(1924.775 -2123.628)" fill="#1295ae"/>
        <path id="Trazado_3393" data-name="Trazado 3393" d="M-1776.237,2273.42l-1.354,41.756,10.608-33.4Z" transform="translate(1911.435 -2091.728)" fill="#7dbfcb"/>
        <path id="Trazado_3394" data-name="Trazado 3394" d="M-1839.781,2291.477l41.078,23.7,1.354-41.756Z" transform="translate(1932.547 -2091.728)" fill="#78b7c0"/>
        <path id="Trazado_3395" data-name="Trazado 3395" d="M-1802.535,2058.146l6.546,55.3,20.538-36.79Z" transform="translate(1919.903 -2018.648)" fill="#057889"/>
        <path id="Trazado_3396" data-name="Trazado 3396" d="M-1811.7,2058.146l-17.831,60.714,24.377-5.416Z" transform="translate(1929.067 -2018.648)" fill="#057a8c"/>
        <path id="Trazado_3397" data-name="Trazado 3397" d="M-1826.113,2172.96l22.8,44.916,11.06-30.471Z" transform="translate(1927.907 -2057.624)" fill="#37a1b1"/>
        <path id="Trazado_3398" data-name="Trazado 3398" d="M-1803.993,2141.864l-22.12,20.54,33.856,14.444Z" transform="translate(1927.907 -2047.068)" fill="#1396ae"/>
        <path id="Trazado_3399" data-name="Trazado 3399" d="M-1807.957,2240.96l-31.824,39.5,42.432-18.057Z" transform="translate(1932.547 -2080.709)" fill="#78b6bf"/>
        <path id="Trazado_3400" data-name="Trazado 3400" d="M-1839.781,2300.757l27.536,44.013,13.542-20.314Z" transform="translate(1932.547 -2101.008)" fill="#58abb6"/>
        <path id="Trazado_3401" data-name="Trazado 3401" d="M-1848.666,2055.413l12.64,62.519,17.831-60.714Z" transform="translate(1935.563 -2017.72)" fill="#026c79"/>
        <path id="Trazado_3402" data-name="Trazado 3402" d="M-1843.882,2394.023l17.831,10.608,12.414-37.241Z" transform="translate(1933.939 -2123.628)" fill="#1190a7"/>
        <path id="Trazado_3403" data-name="Trazado 3403" d="M-1829.53,2147.28l2.257,15.124,22.12-20.54Z" transform="translate(1929.067 -2047.068)" fill="#0e8aa0"/>
        <path id="Trazado_3404" data-name="Trazado 3404" d="M-1837.249,2172.96l-21.668,49.429,44.464-4.513Z" transform="translate(1939.043 -2057.624)" fill="#45a1aa"/>
        <path id="Trazado_3405" data-name="Trazado 3405" d="M-1858.917,2245.473l12.64,34.984,31.824-39.5Z" transform="translate(1939.043 -2080.709)" fill="#74afb6"/>
        <path id="Trazado_3406" data-name="Trazado 3406" d="M-1868.826,2527.12l43.561,14.219,11.285-34.533Z" transform="translate(1942.407 -2170.957)" fill="#026273"/>
        <path id="Trazado_3407" data-name="Trazado 3407" d="M-1839.033,2474.344l-29.793,41.756,54.846-20.314Z" transform="translate(1942.407 -2159.937)" fill="#016674"/>
        <path id="Trazado_3408" data-name="Trazado 3408" d="M-1856.867,2039.283l35.887,9.931,9.479-17.379Z" transform="translate(1938.347 -2009.716)" fill="#026475"/>
        <path id="Trazado_3409" data-name="Trazado 3409" d="M-1856.867,2043.111l5.417,8.126,30.47,1.805Z" transform="translate(1938.347 -2013.544)" fill="#016170"/>
        <path id="Trazado_3410" data-name="Trazado 3410" d="M-1849.989,2300.757l-19.862,8.577,47.4,35.436Z" transform="translate(1942.755 -2101.008)" fill="#5da6ad"/>
        <path id="Trazado_3411" data-name="Trazado 3411" d="M-1869.851,2313.742l17.153,62.069,30.245-26.633Z" transform="translate(1942.755 -2105.416)" fill="#3699a5"/>
        <path id="Trazado_3412" data-name="Trazado 3412" d="M-1880.755,2313.742l-21.217,13.768,38.37,48.3Z" transform="translate(1953.659 -2105.416)" fill="#3b959f"/>
        <path id="Trazado_3413" data-name="Trazado 3413" d="M-1869.43,2055.413l-40.4,50.783,53.041,11.736Z" transform="translate(1956.327 -2017.72)" fill="#026d7b"/>
        <path id="Trazado_3414" data-name="Trazado 3414" d="M-1886.253,2190.565l18.056,31.824,21.668-49.429Z" transform="translate(1948.323 -2057.624)" fill="#3595a0"/>
        <path id="Trazado_3415" data-name="Trazado 3415" d="M-1872.927,2464.434l2.709,48.3,29.793-41.756Z" transform="translate(1943.799 -2156.573)" fill="#00636e"/>
        <path id="Trazado_3416" data-name="Trazado 3416" d="M-1872.927,2450.63l32.5,6.546,4.514-33.4Z" transform="translate(1943.799 -2142.768)" fill="#037281"/>
        <path id="Trazado_3417" data-name="Trazado 3417" d="M-1853.742,2407.711l-19.185,37.467,37.016-26.859Z" transform="translate(1943.799 -2137.316)" fill="#077a8b"/>
        <path id="Trazado_3418" data-name="Trazado 3418" d="M-1880.931,2464.434l-15.573,35.21,18.282,13.092Z" transform="translate(1951.802 -2156.573)" fill="#005c6a"/>
        <path id="Trazado_3419" data-name="Trazado 3419" d="M-1848.786,2150.064l-37.467,32.729,39.724-17.605Z" transform="translate(1948.323 -2049.852)" fill="#138da0"/>
        <path id="Trazado_3420" data-name="Trazado 3420" d="M-1925.55,2079.111l10.383,27.085,40.4-50.783Z" transform="translate(1961.663 -2017.72)" fill="#016170"/>
        <path id="Trazado_3421" data-name="Trazado 3421" d="M-1909.831,2132.3l15.574,44.465,37.467-32.729Z" transform="translate(1956.327 -2043.82)" fill="#0c8195"/>
        <path id="Trazado_3422" data-name="Trazado 3422" d="M-1891.379,2442.469l12.188,2.709,19.185-37.467Z" transform="translate(1950.063 -2137.316)" fill="#037080"/>
        <path id="Trazado_3423" data-name="Trazado 3423" d="M-1910.44,2334.586l-16.476,34.307,54.846,13.994Z" transform="translate(1962.127 -2112.492)" fill="#288b9c"/>
        <path id="Trazado_3424" data-name="Trazado 3424" d="M-1862.629,2247.793l-7.222,43.561,19.862-8.577Z" transform="translate(1942.755 -2083.028)" fill="#71a9ae"/>
        <path id="Trazado_3425" data-name="Trazado 3425" d="M-1926.916,2386.525l23.473,48.752,31.373-34.758Z" transform="translate(1962.127 -2130.124)" fill="#097a8e"/>
        <path id="Trazado_3426" data-name="Trazado 3426" d="M-1899.58,2233.441l19.637,53.041,7.222-43.561Z" transform="translate(1952.847 -2078.156)" fill="#70a5ad"/>
        <path id="Trazado_3427" data-name="Trazado 3427" d="M-1890.777,2199.613l-8.8,22.344,26.859,9.48Z" transform="translate(1952.847 -2066.672)" fill="#4998a1"/>
        <path id="Trazado_3428" data-name="Trazado 3428" d="M-1880.183,2043.111l-45.367,31.824,50.784-23.7Z" transform="translate(1961.663 -2013.544)" fill="#005c6a"/>
        <path id="Trazado_3429" data-name="Trazado 3429" d="M-1908.164,2233.441l-16.7,47.624,36.339,5.417Z" transform="translate(1961.431 -2078.156)" fill="#6fa1aa"/>
        <path id="Trazado_3430" data-name="Trazado 3430" d="M-1918.778,2006.549l-6.772,55.974,45.367-31.824Z" transform="translate(1961.663 -2001.132)" fill="#056"/>
        <path id="Trazado_3431" data-name="Trazado 3431" d="M-1930.628,2386.525l-7.223,34.533,30.7,14.219Z" transform="translate(1965.839 -2130.124)" fill="#067085"/>
        <path id="Trazado_3432" data-name="Trazado 3432" d="M-1893.119,2460.333l-3.385,37.919,15.573-35.21Z" transform="translate(1951.802 -2155.18)" fill="#01616e"/>
        <path id="Trazado_3433" data-name="Trazado 3433" d="M-1905.436,2517.74l-17.38,14.9,35.662-1.805Z" transform="translate(1960.735 -2174.668)" fill="#005466"/>
        <path id="Trazado_3434" data-name="Trazado 3434" d="M-1924.866,2305.541l15.122,19.185,21.217-13.768Z" transform="translate(1961.431 -2102.632)" fill="#639da7"/>
        <path id="Trazado_3435" data-name="Trazado 3435" d="M-1936.143,2353.094l6.095,15.8,16.476-34.307Z" transform="translate(1965.259 -2112.492)" fill="#348b9a"/>
        <path id="Trazado_3436" data-name="Trazado 3436" d="M-1943.66,2242.019l12.414,39.046,16.7-47.624Z" transform="translate(1967.811 -2078.156)" fill="#6d9ea8"/>
        <path id="Trazado_3437" data-name="Trazado 3437" d="M-1950.152,2497.575l35.436.677,3.385-37.919Z" transform="translate(1970.015 -2155.18)" fill="#005868"/>
        <path id="Trazado_3438" data-name="Trazado 3438" d="M-1925.723,2132.3l-30.922,11.511,46.5,32.954Z" transform="translate(1972.219 -2043.82)" fill="#0b7a92"/>
        <path id="Trazado_3439" data-name="Trazado 3439" d="M-1960.357,2149.723l-7.222,29.793,53.718,3.161Z" transform="translate(1975.931 -2049.736)" fill="#1b8297"/>
        <path id="Trazado_3440" data-name="Trazado 3440" d="M-1967.579,2194.828l44.915,25.5,8.8-22.344Z" transform="translate(1975.931 -2065.048)" fill="#358c9b"/>
        <path id="Trazado_3441" data-name="Trazado 3441" d="M-1974.414,2027.765l32.276,34.758,6.772-55.974Z" transform="translate(1978.251 -2001.132)" fill="#005163"/>
        <path id="Trazado_3442" data-name="Trazado 3442" d="M-1967.579,2194.828l15.8,34.083,29.116-8.578Z" transform="translate(1975.931 -2065.048)" fill="#45909b"/>
        <path id="Trazado_3443" data-name="Trazado 3443" d="M-1942.027,2438.806l-8.125,51.461,38.821-37.242Z" transform="translate(1970.015 -2147.872)" fill="#015f6f"/>
        <path id="Trazado_3444" data-name="Trazado 3444" d="M-1950.152,2516.715l18.056,15.574,17.38-14.9Z" transform="translate(1970.015 -2174.321)" fill="#005264"/>
        <path id="Trazado_3445" data-name="Trazado 3445" d="M-1974.761,2038.669l-.677,16.477,32.952,18.281Z" transform="translate(1978.599 -2012.036)" fill="#005564"/>
        <path id="Trazado_3446" data-name="Trazado 3446" d="M-1949.344,2246.427l-11.059,27.536,23.473,11.51Z" transform="translate(1973.495 -2082.565)" fill="#6d9ea6"/>
        <path id="Trazado_3447" data-name="Trazado 3447" d="M-1928.694,2305.541l-7.449,37.693,22.571-18.508Z" transform="translate(1965.259 -2102.632)" fill="#5195a0"/>
        <path id="Trazado_3448" data-name="Trazado 3448" d="M-1936.106,2091.291l-20.539,38.6,30.922-11.511Z" transform="translate(1972.219 -2029.9)" fill="#03687b"/>
        <path id="Trazado_3449" data-name="Trazado 3449" d="M-1960.4,2392.62l14.9,28.438,7.223-34.533Z" transform="translate(1973.495 -2130.124)" fill="#0b7a90"/>
        <path id="Trazado_3450" data-name="Trazado 3450" d="M-1975.438,2063.614l12.413,56.877,20.539-38.6Z" transform="translate(1978.599 -2020.504)" fill="#015f6f"/>
        <path id="Trazado_3451" data-name="Trazado 3451" d="M-1960.4,2288.115l16.024,49.2,7.449-37.693Z" transform="translate(1973.495 -2096.717)" fill="#6199a3"/>
        <path id="Trazado_3452" data-name="Trazado 3452" d="M-1960.36,2516.715l-19.863,22.119,37.919-6.546Z" transform="translate(1980.223 -2174.321)" fill="#004f60"/>
        <path id="Trazado_3453" data-name="Trazado 3453" d="M-1944.379,2362.606-1960.4,2384.5l22.119-6.095Z" transform="translate(1973.495 -2122.004)" fill="#228497"/>
        <path id="Trazado_3454" data-name="Trazado 3454" d="M-1967.131,2395.752l-13.092,102.019,19.863-22.12Z" transform="translate(1980.223 -2133.257)" fill="#005865"/>
        <path id="Trazado_3455" data-name="Trazado 3455" d="M-1960.4,2395.752l6.771,79.9,8.125-51.461Z" transform="translate(1973.495 -2133.257)" fill="#036576"/>
        <path id="Trazado_3456" data-name="Trazado 3456" d="M-1960.4,2288.115v71.1l16.024-21.894Z" transform="translate(1973.495 -2096.717)" fill="#3e8e99"/>
        <path id="Trazado_3457" data-name="Trazado 3457" d="M-1967.579,2194.828l4.74,61.618,11.059-27.536Z" transform="translate(1975.931 -2065.048)" fill="#59969f"/>
        <path id="Trazado_3458" data-name="Trazado 3458" d="M-1975.438,2063.614l5.191,86.67,7.222-29.793Z" transform="translate(1978.599 -2020.504)" fill="#056c7e"/>
        <path id="Trazado_3459" data-name="Trazado 3459" d="M-1980.223,2461.231l13.092-102.019v-71.1Z" transform="translate(1980.223 -2096.717)" fill="#09778b"/>
        <path id="Trazado_3460" data-name="Trazado 3460" d="M-1971.871,2194.828l-8.352,234.734,13.092-173.116Z" transform="translate(1980.223 -2065.048)" fill="#438f99"/>
        <path id="Trazado_3461" data-name="Trazado 3461" d="M-1977.062,2063.614l-3.161,321.4,8.352-234.734Z" transform="translate(1980.223 -2020.504)" fill="#6c9ca3"/>
      </g>
    </g>
  </g>
</svg>
