<svg xmlns="http://www.w3.org/2000/svg" width="105.041" height="56.029" viewBox="0 0 105.041 56.029">
  <path id="Trazado_10057" data-name="Trazado 10057" d="M41.245,27,36.1,18.3H34.915V27h-4.1V7.244h7.164a8.287,8.287,0,0,1,2.871.458,4.964,4.964,0,0,1,1.989,1.271,5.445,5.445,0,0,1,1.121,1.866,6.826,6.826,0,0,1,.376,2.311,4.824,4.824,0,0,1-1.08,3.247,5.443,5.443,0,0,1-3.1,1.7L46.1,27Zm-6.33-16.352v4.717h2.42q3.076,0,3.076-2.352a2.141,2.141,0,0,0-.752-1.736,3.575,3.575,0,0,0-2.324-.629Zm26.059,9.119-.041.943H50.515a3.639,3.639,0,0,0,1.121,2.57,3.585,3.585,0,0,0,2.475.889,3.455,3.455,0,0,0,1.853-.485,2.983,2.983,0,0,0,1.183-1.415l3.609.533A6.136,6.136,0,0,1,58.294,26.1a7.317,7.317,0,0,1-4.156,1.176,7.609,7.609,0,0,1-5.476-1.935,7.059,7.059,0,0,1-2.03-5.366,7.1,7.1,0,0,1,2.037-5.366,7.383,7.383,0,0,1,5.346-1.962,7.055,7.055,0,0,1,5.045,1.791A7.026,7.026,0,0,1,60.974,19.768Zm-6.932-4.334a3.111,3.111,0,0,0-3.418,2.707h6.453a2.96,2.96,0,0,0-.971-2.01A3.077,3.077,0,0,0,54.042,15.434ZM70.325,27.26A7.509,7.509,0,0,1,64.9,25.236a6.989,6.989,0,0,1-2.105-5.277,6.973,6.973,0,0,1,2.1-5.277,8.344,8.344,0,0,1,9.987-.656,6.043,6.043,0,0,1,2.352,3.814l-3.637.4a3.116,3.116,0,0,0-1.176-1.846,3.575,3.575,0,0,0-2.133-.615,3.224,3.224,0,0,0-2.57,1.148,4.5,4.5,0,0,0-.984,3.035,4.508,4.508,0,0,0,.984,3.028,3.216,3.216,0,0,0,2.57,1.155,3.544,3.544,0,0,0,2.126-.615,3.188,3.188,0,0,0,1.183-1.846l3.637.4a6.059,6.059,0,0,1-2.372,3.814A7.458,7.458,0,0,1,70.325,27.26ZM89.343,12.945H93.28V27H89.548l-.1-1.7a5.367,5.367,0,0,1-4.471,1.969A5.479,5.479,0,0,1,81.1,26.009a4.689,4.689,0,0,1-1.354-3.6V12.945H83.7v8.613a2.429,2.429,0,0,0,.7,1.928,2.673,2.673,0,0,0,1.825.615,3.17,3.17,0,0,0,2.235-.8,3.436,3.436,0,0,0,.882-2.6Zm11.785,2.229a4.562,4.562,0,0,1,1.846-1.688,5.632,5.632,0,0,1,2.748-.7v3.514a5.324,5.324,0,0,0-3.363.848,3.7,3.7,0,0,0-1.039,3.008V27H97.354V12.945h3.773Zm11.854,12.1a7.855,7.855,0,0,1-4.1-.984,4.161,4.161,0,0,1-2.01-2.926l3.295-.93a2.648,2.648,0,0,0,2.816,2.092,2.909,2.909,0,0,0,1.436-.321,1.118,1.118,0,0,0,.561-1.087,1.15,1.15,0,0,0-.232-.725,1.841,1.841,0,0,0-.718-.52,8.942,8.942,0,0,0-.957-.369q-.472-.15-1.251-.362t-1.3-.4a8.7,8.7,0,0,1-1.237-.526,5.277,5.277,0,0,1-1.025-.725,2.921,2.921,0,0,1-.766-1.1,3.97,3.97,0,0,1-.267-1.5,3.591,3.591,0,0,1,1.524-3.145,6.811,6.811,0,0,1,3.985-1.066,6.983,6.983,0,0,1,3.678.9,4.084,4.084,0,0,1,1.887,2.816l-3.049.684a2.388,2.388,0,0,0-2.5-1.777,2.74,2.74,0,0,0-1.381.314,1.01,1.01,0,0,0-.547.93,1.065,1.065,0,0,0,.082.424.839.839,0,0,0,.287.342,4.188,4.188,0,0,0,.4.26,2.991,2.991,0,0,0,.561.226q.369.116.615.178t.718.185l.731.191q.752.205,1.319.41a7.727,7.727,0,0,1,1.21.574,4.343,4.343,0,0,1,1.06.827,3.689,3.689,0,0,1,.69,1.162,4.292,4.292,0,0,1,.273,1.565,4.228,4.228,0,0,1-.472,2.037A3.541,3.541,0,0,1,117,26.3a6.288,6.288,0,0,1-1.825.738A9.468,9.468,0,0,1,112.981,27.273Zm15.162,0a8.838,8.838,0,0,1-3.979-.861,6.437,6.437,0,0,1-2.728-2.529,7.538,7.538,0,0,1-.991-3.924,6.875,6.875,0,0,1,2.133-5.332,8.916,8.916,0,0,1,11.143,0,6.875,6.875,0,0,1,2.133,5.332,6.913,6.913,0,0,1-2.133,5.353A7.915,7.915,0,0,1,128.144,27.273Zm-.041-3.131a3.608,3.608,0,0,0,2.782-1.148,4.3,4.3,0,0,0,1.06-3.035,4.3,4.3,0,0,0-1.06-3.035,3.608,3.608,0,0,0-2.782-1.148,3.476,3.476,0,0,0-2.7,1.155,4.339,4.339,0,0,0-1.046,3.028,4.339,4.339,0,0,0,1.046,3.028A3.476,3.476,0,0,0,128.1,24.143ZM55.778,63.26a7.509,7.509,0,0,1-5.428-2.023,7.676,7.676,0,0,1-.007-10.555,7.533,7.533,0,0,1,5.435-2.01,7.489,7.489,0,0,1,4.553,1.354,6.043,6.043,0,0,1,2.352,3.814l-3.637.4a3.116,3.116,0,0,0-1.176-1.846,3.575,3.575,0,0,0-2.133-.615,3.224,3.224,0,0,0-2.57,1.148,5.161,5.161,0,0,0,0,6.063,3.216,3.216,0,0,0,2.57,1.155,3.544,3.544,0,0,0,2.126-.615,3.188,3.188,0,0,0,1.183-1.846l3.637.4a6.059,6.059,0,0,1-2.372,3.814A7.458,7.458,0,0,1,55.778,63.26ZM65.485,63V42h3.979V63Zm19.578-3.814a13.148,13.148,0,0,0,.342,3.432V63H81.728l-.314-1.531a4.57,4.57,0,0,1-1.969,1.354,7.256,7.256,0,0,1-2.543.451,6.687,6.687,0,0,1-1.312-.123,4.462,4.462,0,0,1-1.183-.417A3.589,3.589,0,0,1,73.429,62a3.208,3.208,0,0,1-.656-1.114,4.439,4.439,0,0,1-.246-1.524,4.227,4.227,0,0,1,.26-1.524A3.573,3.573,0,0,1,73.47,56.7a4.147,4.147,0,0,1,1.107-.834,8.473,8.473,0,0,1,1.395-.6,16.662,16.662,0,0,1,1.668-.437l2.311-.52A2.548,2.548,0,0,0,81,53.86a.886.886,0,0,0,.308-.7,1.45,1.45,0,0,0-.69-1.354,3.224,3.224,0,0,0-1.675-.41q-2.42,0-2.748,2.146L72.7,52.91A4.719,4.719,0,0,1,74.741,49.7a8.1,8.1,0,0,1,4.416-1.032q5.906,0,5.906,5.072Zm-6.932,1.422a3.167,3.167,0,0,0,2.434-1.019,4.292,4.292,0,0,0,.943-3.015l-3.336.943a3.942,3.942,0,0,0-1.4.574,1.179,1.179,0,0,0-.485,1.012,1.309,1.309,0,0,0,.52,1.114A2.15,2.15,0,0,0,78.132,60.607ZM97.765,48.945h4.17L95.946,63H92.528l-5.92-14.055h4.143l3.5,9.611Zm18.895,6.822-.041.943H106.2a3.639,3.639,0,0,0,1.121,2.57,3.585,3.585,0,0,0,2.475.889,3.455,3.455,0,0,0,1.853-.485,2.983,2.983,0,0,0,1.183-1.415l3.609.533a6.136,6.136,0,0,1-2.461,3.295,7.317,7.317,0,0,1-4.156,1.176,7.609,7.609,0,0,1-5.476-1.935,7.059,7.059,0,0,1-2.03-5.366,7.1,7.1,0,0,1,2.037-5.366,7.383,7.383,0,0,1,5.346-1.962,6.434,6.434,0,0,1,6.959,7.123Zm-6.932-4.334a3.111,3.111,0,0,0-3.418,2.707h6.453a2.96,2.96,0,0,0-.971-2.01A3.077,3.077,0,0,0,109.728,51.434Z" transform="translate(-30.813 -7.244)" fill="#206491"/>
</svg>
